<svg width="34" height="26" viewBox="0 0 34 26" fill="none" xmlns="http://www.w3.org/2000/svg">
<path d="M10.3209 23.884C7.37078 26.8597 2.37431 26.8478 0.978936 22.8819C0.705741 22.1054 0.487312 21.307 0.326657 20.4924C-0.329291 17.1661 0.00736582 13.7184 1.29406 10.5852C2.58075 7.45198 4.75967 4.77396 7.55531 2.88981C10.351 1.00566 13.6378 -1.45274e-07 17 0C20.3623 1.45274e-07 23.6491 1.00566 26.4447 2.88981C29.2404 4.77396 31.4193 7.45198 32.706 10.5853C33.9927 13.7184 34.3293 17.1661 33.6734 20.4924C33.5127 21.307 33.2943 22.1054 33.021 22.8819C31.6257 26.8478 26.6292 26.8597 23.679 23.884L19.125 19.2905C18.6899 18.8517 18.7349 18.1279 18.8549 17.5193C18.9278 17.1493 18.8904 16.7657 18.7472 16.4171C18.6041 16.0686 18.3617 15.7706 18.0507 15.5611C17.7397 15.3515 17.3741 15.2396 17 15.2396C16.626 15.2396 16.2604 15.3515 15.9494 15.5611C15.6383 15.7706 15.3959 16.0686 15.2528 16.4171C15.1096 16.7657 15.0722 17.1493 15.1452 17.5193C15.2652 18.1279 15.3101 18.8517 14.875 19.2905L10.3209 23.884Z" fill="url(#paint0_linear_358_788)"/>
<defs>
<linearGradient id="paint0_linear_358_788" x1="32.4526" y1="8.57358" x2="2.27758" y2="8.57358" gradientUnits="userSpaceOnUse">
<stop stop-color="#64C2DB"/>
<stop offset="0.510417" stop-color="#7476ED"/>
<stop offset="1" stop-color="#E56F8C"/>
</linearGradient>
</defs>
</svg>
