<svg width="168" height="48" viewBox="0 0 168 48" fill="none" xmlns="http://www.w3.org/2000/svg">
<g clip-path="url(#clip0_80_7002)">
<path d="M34.078 6.59528L13.9457 22.8598C13.6804 23.0742 13.3496 23.1911 13.0077 23.1911H1.48923C0.0887733 23.1911 -0.534377 21.4435 0.553099 20.5673L24.8475 1.00702C25.4847 0.493765 30.4129 -0.221821 30.9305 0.410234L34.2938 4.51906C34.8114 5.15204 34.7152 6.08202 34.078 6.59621V6.59528Z" fill="#6049E7"/>
<path d="M29.2619 23.1911H53.2312C53.8927 23.1911 54.5083 22.8524 54.8596 22.2955L56.7029 19.3728C57.5054 18.1013 56.5852 16.4492 55.0745 16.4492H44.2792C43.5906 16.4492 42.9544 16.0835 42.6124 15.4905L34.22 0.958756C33.8771 0.365682 33.2418 0 32.5533 0H20.7611C20.1688 0 19.6101 0.271013 19.2457 0.735078L17.721 2.67579C17.2408 3.2865 17.1801 4.12553 17.5678 4.79842L27.5942 22.2296C27.9362 22.8245 28.5734 23.1921 29.2628 23.1921L29.2619 23.1911Z" fill="#6049E7"/>
<path d="M40.9943 16.7193H29.1479C28.7546 16.7193 28.393 16.503 28.209 16.1569L21.5169 3.55473C21.1516 2.86699 21.6365 2.03631 22.4185 2.0094L33.652 1.64093C34.049 1.62701 34.4209 1.83491 34.6152 2.18017L41.9211 15.1517C42.8497 16.7202 42.533 16.7202 40.4524 16.7202H40.9952L40.9943 16.7193Z" fill="#6049E7"/>
<path d="M22.922 41.4038L43.0543 25.1393C43.3197 24.9249 43.6504 24.8079 43.9923 24.8079H55.5108C56.9113 24.8079 57.5344 26.5556 56.4469 27.4318L32.1525 46.9921C31.5153 47.5053 26.5871 48.2209 26.0695 47.5888L22.7062 43.48C22.1886 42.847 22.2849 41.9171 22.922 41.4029V41.4038Z" fill="#6049E7"/>
<path d="M27.7381 24.8089H3.7688C3.10735 24.8089 2.49167 25.1476 2.14039 25.7045L0.2971 28.6272C-0.505427 29.8987 0.414817 31.5508 1.92551 31.5508H12.7209C13.4094 31.5508 14.0456 31.9165 14.3876 32.5095L22.78 47.0403C23.1229 47.6334 23.7582 47.9991 24.4467 47.9991H36.2389C36.8312 47.9991 37.3899 47.7281 37.7543 47.264L39.279 45.3233C39.7592 44.7126 39.8199 43.8735 39.4322 43.2006L29.4058 25.7695C29.0638 25.1745 28.4267 24.807 27.7372 24.807L27.7381 24.8089Z" fill="#6049E7"/>
<path d="M16.0057 31.2807H27.8521C28.2454 31.2807 28.607 31.497 28.791 31.8431L35.484 44.4453C35.8493 45.133 35.3645 45.9637 34.5825 45.9906L23.349 46.3591C22.9519 46.373 22.5801 46.1651 22.3858 45.8208L15.0799 32.8492C14.1512 31.2807 14.4679 31.2807 16.5485 31.2807H16.0057Z" fill="#6049E7"/>
</g>
<path d="M71.6089 17.1016V13.9014H88.4312V17.1016H81.9175V35H78.1367V17.1016H71.6089ZM92.2408 35.3257C91.2307 35.3257 90.3245 35.1463 89.5221 34.7876C88.7196 34.4194 88.0872 33.8813 87.6246 33.1733C87.162 32.4653 86.9307 31.5921 86.9307 30.5537C86.9307 29.6663 87.0959 28.93 87.4263 28.3447C87.7568 27.7594 88.2052 27.2922 88.7716 26.9429C89.3474 26.5936 89.9941 26.3293 90.7115 26.1499C91.429 25.9611 92.17 25.8289 92.9346 25.7534C93.8692 25.6496 94.6244 25.5599 95.2003 25.4844C95.7761 25.4089 96.1915 25.2861 96.4464 25.1162C96.7107 24.9463 96.8429 24.682 96.8429 24.3232V24.2524C96.8429 23.4878 96.6163 22.8931 96.1632 22.4683C95.71 22.0435 95.0492 21.8311 94.1807 21.8311C93.2651 21.8311 92.5382 22.0293 92.0001 22.4258C91.4714 22.8223 91.1127 23.2896 90.9239 23.8276L87.4547 23.332C87.7284 22.3691 88.1816 21.5667 88.814 20.9248C89.4465 20.2734 90.2159 19.7873 91.1221 19.4663C92.0378 19.1359 93.0479 18.9707 94.1524 18.9707C94.9076 18.9707 95.6628 19.0604 96.418 19.2397C97.1733 19.4097 97.8671 19.7023 98.4996 20.1177C99.1321 20.533 99.6371 21.09 100.015 21.7886C100.392 22.4871 100.581 23.3604 100.581 24.4082V35H96.9986V32.8193H96.8853C96.6588 33.2536 96.3378 33.6642 95.9224 34.0513C95.5165 34.4289 95.0068 34.7357 94.3931 34.9717C93.789 35.2077 93.0715 35.3257 92.2408 35.3257ZM93.1895 32.5786C93.9447 32.5786 94.5961 32.4323 95.1436 32.1396C95.6912 31.8376 96.116 31.4411 96.418 30.9502C96.7201 30.4499 96.8712 29.9071 96.8712 29.3218V27.4668C96.7485 27.5612 96.5502 27.6509 96.2764 27.7358C96.0027 27.8114 95.6912 27.8822 95.3419 27.9482C94.9926 28.0143 94.648 28.071 94.3082 28.1182C93.9778 28.1654 93.6899 28.2031 93.4444 28.2314C92.8874 28.307 92.3871 28.4344 91.9434 28.6138C91.5092 28.7837 91.1646 29.0197 90.9097 29.3218C90.6549 29.6239 90.5274 30.0156 90.5274 30.4971C90.5274 31.1862 90.7776 31.7054 91.2779 32.0547C91.7782 32.404 92.4154 32.5786 93.1895 32.5786ZM115.252 23.3745L111.867 23.7285C111.726 23.2093 111.419 22.7515 110.947 22.355C110.475 21.9491 109.809 21.7461 108.95 21.7461C108.176 21.7461 107.525 21.916 106.996 22.2559C106.477 22.5957 106.217 23.0299 106.217 23.5586C106.217 24.0212 106.387 24.4035 106.727 24.7056C107.076 24.9982 107.652 25.2342 108.455 25.4136L111.159 25.98C112.641 26.2915 113.751 26.8013 114.487 27.5093C115.223 28.2173 115.591 29.133 115.591 30.2563C115.591 31.2476 115.304 32.1255 114.728 32.8901C114.152 33.6548 113.354 34.2495 112.335 34.6743C111.325 35.0991 110.159 35.3115 108.837 35.3115C106.902 35.3115 105.344 34.9056 104.164 34.0938C102.994 33.2725 102.29 32.1349 102.054 30.6812L105.694 30.3413C105.854 31.0493 106.203 31.5874 106.741 31.9556C107.289 32.3143 107.987 32.4937 108.837 32.4937C109.724 32.4937 110.437 32.3143 110.975 31.9556C111.513 31.5874 111.782 31.139 111.782 30.6104C111.782 29.723 111.074 29.1188 109.658 28.7979L106.954 28.2314C105.434 27.901 104.311 27.3677 103.584 26.6313C102.857 25.8856 102.493 24.9368 102.493 23.7852C102.493 22.8034 102.762 21.9538 103.3 21.2363C103.839 20.5189 104.589 19.9619 105.552 19.5654C106.515 19.1689 107.629 18.9707 108.894 18.9707C110.753 18.9707 112.212 19.3719 113.269 20.1743C114.336 20.9673 114.997 22.034 115.252 23.3745ZM120.421 30.0439L120.406 25.5269H121.015L126.694 19.1689H131.055L124.06 26.9712H123.281L120.421 30.0439ZM117.022 35V13.9014H120.746V35H117.022ZM126.948 35L121.794 27.8066L124.315 25.1729L131.409 35H126.948ZM141.251 35.2832C139.316 35.2832 137.612 34.8442 136.139 33.9663C134.676 33.0884 133.534 31.8423 132.712 30.228C131.891 28.6138 131.48 26.6974 131.48 24.479C131.48 22.2134 131.9 20.2687 132.741 18.645C133.59 17.0213 134.742 15.7799 136.196 14.9209C137.649 14.0524 139.297 13.6182 141.138 13.6182C142.308 13.6182 143.394 13.7881 144.394 14.1279C145.404 14.4678 146.301 14.9539 147.085 15.5864C147.868 16.2095 148.51 16.9505 149.011 17.8096C149.52 18.6686 149.86 19.6126 150.03 20.6416H146.136C145.966 20.0846 145.73 19.5843 145.428 19.1406C145.135 18.6969 144.777 18.3193 144.352 18.0078C143.937 17.6868 143.465 17.4461 142.936 17.2856C142.407 17.1252 141.822 17.0449 141.18 17.0449C140.057 17.0449 139.051 17.3328 138.164 17.9087C137.277 18.4751 136.578 19.3105 136.068 20.415C135.568 21.5101 135.318 22.8506 135.318 24.4365C135.318 26.0319 135.568 27.3818 136.068 28.4863C136.569 29.5908 137.267 30.431 138.164 31.0068C139.061 31.5732 140.099 31.8564 141.279 31.8564C142.346 31.8564 143.271 31.6535 144.055 31.2476C144.838 30.8322 145.442 30.2469 145.867 29.4917C146.292 28.7365 146.504 27.8444 146.504 26.8154L147.382 26.957H141.647V23.9692H150.214V26.4897C150.214 28.3022 149.832 29.8646 149.067 31.1768C148.303 32.4889 147.241 33.5037 145.881 34.2212C144.531 34.9292 142.988 35.2832 141.251 35.2832ZM158.98 35.3115C157.432 35.3115 156.091 34.9717 154.958 34.292C153.826 33.6123 152.948 32.6589 152.325 31.4316C151.711 30.2044 151.404 28.779 151.404 27.1553C151.404 25.5221 151.711 24.092 152.325 22.8647C152.948 21.6281 153.826 20.6699 154.958 19.9902C156.091 19.3105 157.432 18.9707 158.98 18.9707C160.528 18.9707 161.869 19.3105 163.001 19.9902C164.134 20.6699 165.012 21.6281 165.635 22.8647C166.258 24.092 166.57 25.5221 166.57 27.1553C166.57 28.779 166.258 30.2044 165.635 31.4316C165.012 32.6589 164.134 33.6123 163.001 34.292C161.869 34.9717 160.528 35.3115 158.98 35.3115ZM158.98 32.3096C159.839 32.3096 160.547 32.083 161.104 31.6299C161.661 31.1673 162.076 30.5443 162.35 29.7607C162.633 28.9772 162.775 28.1087 162.775 27.1553C162.775 26.1829 162.633 25.305 162.35 24.5215C162.076 23.738 161.661 23.1196 161.104 22.6665C160.547 22.2039 159.839 21.9727 158.98 21.9727C158.14 21.9727 157.436 22.2039 156.87 22.6665C156.304 23.1196 155.879 23.738 155.596 24.5215C155.322 25.305 155.185 26.1829 155.185 27.1553C155.185 28.1087 155.322 28.9772 155.596 29.7607C155.879 30.5443 156.304 31.1673 156.87 31.6299C157.436 32.083 158.14 32.3096 158.98 32.3096Z" fill="#0D062D"/>
<defs>
<clipPath id="clip0_80_7002">
<rect width="57" height="48" fill="white"/>
</clipPath>
</defs>
</svg>
