<svg width="32" height="32" viewBox="0 0 32 32" fill="none" xmlns="http://www.w3.org/2000/svg">
<rect width="32" height="32" rx="16" fill="#6049E7"/>
<g clip-path="url(#clip0_103_392)">
<path d="M17.3589 10.1985L10.6481 15.62C10.5597 15.6915 10.4494 15.7305 10.3354 15.7305H6.49596C6.02914 15.7305 5.82143 15.1479 6.18392 14.8559L14.2821 8.33579C14.4945 8.16471 16.1372 7.92618 16.3097 8.13686L17.4308 9.50647C17.6034 9.71746 17.5713 10.0275 17.3589 10.1989V10.1985Z" fill="white"/>
<path d="M15.7536 15.7304H23.7434C23.9639 15.7304 24.1691 15.6175 24.2862 15.4318L24.9006 14.4576C25.1681 14.0338 24.8614 13.4831 24.3578 13.4831H20.7594C20.5299 13.4831 20.3178 13.3612 20.2038 13.1635L17.4063 8.31959C17.292 8.12189 17.0803 8 16.8508 8H12.92C12.7226 8 12.5364 8.09034 12.4149 8.24503L11.9067 8.89193C11.7466 9.0955 11.7264 9.37518 11.8556 9.59947L15.1977 15.4099C15.3117 15.6082 15.5241 15.7307 15.7539 15.7307L15.7536 15.7304Z" fill="white"/>
<path d="M19.6646 13.5732H15.7158C15.5847 13.5732 15.4642 13.5011 15.4028 13.3857L13.1722 9.18503C13.0504 8.95578 13.212 8.67889 13.4727 8.66992L17.2172 8.54709C17.3495 8.54245 17.4735 8.61175 17.5382 8.72684L19.9735 13.0507C20.2831 13.5735 20.1775 13.5735 19.484 13.5735H19.6649L19.6646 13.5732Z" fill="white"/>
<path d="M13.6405 21.8015L20.3512 16.38C20.4397 16.3085 20.5499 16.2695 20.6639 16.2695H24.5034C24.9702 16.2695 25.1779 16.8521 24.8154 17.1441L16.7173 23.6642C16.5049 23.8353 14.8622 24.0739 14.6896 23.8632L13.5685 22.4936C13.396 22.2826 13.4281 21.9726 13.6405 21.8012V21.8015Z" fill="white"/>
<path d="M15.2459 16.2697H7.25611C7.03563 16.2697 6.8304 16.3826 6.71331 16.5682L6.09888 17.5424C5.83137 17.9663 6.13812 18.517 6.64168 18.517H10.2401C10.4696 18.517 10.6817 18.6389 10.7957 18.8366L13.5932 23.6801C13.7075 23.8778 13.9192 23.9997 14.1488 23.9997H18.0795C18.2769 23.9997 18.4632 23.9094 18.5846 23.7547L19.0928 23.1078C19.2529 22.9042 19.2732 22.6246 19.1439 22.4003L15.8018 16.5899C15.6878 16.3916 15.4754 16.269 15.2456 16.269L15.2459 16.2697Z" fill="white"/>
<path d="M11.335 18.4268H15.2838C15.4149 18.4268 15.5354 18.4988 15.5968 18.6142L17.8278 22.8149C17.9496 23.0442 17.7879 23.3211 17.5273 23.3301L13.7828 23.4529C13.6504 23.4575 13.5265 23.3882 13.4617 23.2734L11.0264 18.9496C10.7168 18.4268 10.8224 18.4268 11.5159 18.4268H11.335Z" fill="white"/>
</g>
<defs>
<clipPath id="clip0_103_392">
<rect width="19" height="16" fill="white" transform="translate(6 8)"/>
</clipPath>
</defs>
</svg>
