<svg width="256" height="256" viewBox="0 0 256 256" fill="none" xmlns="http://www.w3.org/2000/svg">
<rect width="256" height="256" rx="128" fill="#6049E7"/>
<g clip-path="url(#clip0_103_412)">
<path d="M146.191 69.2588L78.7302 124.152C77.8411 124.875 76.7329 125.27 75.5871 125.27H36.9901C32.2974 125.27 30.2093 119.371 33.8533 116.414L115.261 50.3985C117.396 48.6662 133.91 46.2511 135.644 48.3843L146.914 62.2516C148.649 64.3879 148.326 67.5266 146.191 69.262V69.2588Z" fill="white"/>
<path d="M130.053 125.27H210.371C212.588 125.27 214.651 124.127 215.828 122.247L222.005 112.383C224.694 108.092 221.61 102.516 216.548 102.516H180.374C178.067 102.516 175.935 101.282 174.789 99.2803L146.667 50.2358C145.518 48.2342 143.389 47 141.082 47H101.568C99.5831 47 97.711 47.9147 96.4901 49.4809L91.381 56.0308C89.7718 58.0919 89.5684 60.9237 90.8675 63.1947L124.465 122.025C125.611 124.033 127.746 125.273 130.056 125.273L130.053 125.27Z" fill="white"/>
<path d="M169.367 103.428H129.671C128.353 103.428 127.142 102.698 126.525 101.53L104.101 58.9974C102.877 56.6763 104.501 53.8728 107.122 53.7819L144.764 52.5384C146.094 52.4914 147.34 53.193 147.991 54.3583L172.473 98.1372C175.584 103.431 174.523 103.431 167.551 103.431H169.37L169.367 103.428Z" fill="white"/>
<path d="M108.809 186.738L176.27 131.845C177.159 131.121 178.267 130.727 179.413 130.727H218.01C222.702 130.727 224.791 136.625 221.147 139.582L139.739 205.598C137.604 207.33 121.09 209.745 119.356 207.612L108.086 193.745C106.351 191.609 106.674 188.47 108.809 186.734V186.738Z" fill="white"/>
<path d="M124.947 130.73H44.6287C42.4123 130.73 40.3492 131.873 39.1721 133.753L32.9955 143.617C30.3063 147.908 33.3899 153.484 38.4521 153.484H74.626C76.9332 153.484 79.0651 154.718 80.2109 156.72L108.333 205.761C109.482 207.763 111.611 208.997 113.918 208.997H153.432C155.417 208.997 157.289 208.082 158.51 206.516L163.619 199.966C165.228 197.905 165.432 195.073 164.132 192.802L130.535 133.972C129.389 131.964 127.254 130.724 124.944 130.724L124.947 130.73Z" fill="white"/>
<path d="M85.6329 152.572H125.329C126.647 152.572 127.858 153.302 128.475 154.471L150.902 197.003C152.126 199.324 150.502 202.127 147.881 202.218L110.239 203.462C108.909 203.509 107.663 202.807 107.012 201.645L82.5305 157.866C79.4187 152.572 80.4799 152.572 87.4517 152.572H85.6329Z" fill="white"/>
</g>
<defs>
<clipPath id="clip0_103_412">
<rect width="191" height="162" fill="white" transform="translate(32 47)"/>
</clipPath>
</defs>
</svg>
