<svg width="102" height="24" viewBox="0 0 102 24" fill="none" xmlns="http://www.w3.org/2000/svg">
<path fill-rule="evenodd" clip-rule="evenodd" d="M6.18357 0V23.1497H0V0H6.18357Z" fill="#909DA9"/>
<path fill-rule="evenodd" clip-rule="evenodd" d="M9.27545 0H22.4156C26.6844 0 30.145 3.45482 30.145 7.71656C30.145 11.9783 26.6844 15.4331 22.4156 15.4331H15.459V23.1497H9.27545V0ZM15.459 9.25988H22.4156C23.2694 9.25988 23.9615 8.5689 23.9615 7.71656C23.9615 6.86422 23.2694 6.17325 22.4156 6.17325H15.459V9.25988Z" fill="#909DA9"/>
<path fill-rule="evenodd" clip-rule="evenodd" d="M53.3334 0V11.9607C53.3334 14.7308 55.5828 16.9764 58.3575 16.9764C61.1323 16.9764 63.3818 14.7308 63.3818 11.9607V0H69.5655V11.9607C69.5655 18.1402 64.5475 23.1497 58.3575 23.1497C52.1677 23.1497 47.1498 18.1402 47.1498 11.9607V0H53.3334Z" fill="#909DA9"/>
<path fill-rule="evenodd" clip-rule="evenodd" d="M32.4638 10.8032C32.4638 4.83674 37.3087 0 43.2851 0H44.831V6.17325H43.2851C40.7237 6.17325 38.6474 8.24617 38.6474 10.8032V11.5748C38.6474 17.9674 33.4565 23.1497 27.0532 23.1497H26.2803V16.9764H27.0532C30.0414 16.9764 32.4638 14.5581 32.4638 11.5748V10.8032Z" fill="#909DA9"/>
<path d="M76.2047 23.1496L79.1555 10.8143L81.3493 18.2353C82.657 22.6614 88.937 22.6614 90.2454 18.2353L92.4385 10.8143L95.3893 23.1496H101.746L97.107 3.75297C96.0036 -0.859709 89.4927 -1.0305 88.1479 3.51803L85.7973 11.4719L83.4461 3.51804C82.1019 -1.03047 75.5904 -0.859734 74.487 3.75297L69.8475 23.1496H76.2047Z" fill="#909DA9"/>
</svg>
