<svg width="14" height="14" viewBox="0 0 14 14" fill="none" xmlns="http://www.w3.org/2000/svg">
<path d="M6.80947 8.98782C8.01308 8.98782 8.98872 8.01236 8.98872 6.80909C8.98872 5.60583 8.01308 4.63037 6.80947 4.63037C5.60594 4.63037 4.63031 5.60583 4.63031 6.80909C4.63031 8.01236 5.60594 8.98782 6.80947 8.98782Z" fill="#0D062D"/>
<path d="M9.80635 0H3.81355C2.8021 0 1.83213 0.401669 1.11699 1.11673C0.401757 1.83178 0 2.80158 0 3.81277V9.80426C0 10.8154 0.401757 11.7852 1.11699 12.5003C1.83213 13.2154 2.8021 13.617 3.81355 13.617H9.80635C10.8177 13.617 11.7878 13.2154 12.5029 12.5003C13.2181 11.7852 13.6199 10.8154 13.6199 9.80426V3.81277C13.6199 2.80158 13.2181 1.83178 12.5029 1.11673C11.7878 0.401669 10.8177 0 9.80635 0ZM6.80991 10.0766C6.16344 10.0766 5.53143 9.88496 4.9939 9.52582C4.45636 9.16676 4.03744 8.65633 3.79002 8.05919C3.54261 7.46195 3.47785 6.80485 3.60396 6.17093C3.73006 5.53701 4.04145 4.95468 4.49854 4.49758C4.95573 4.04057 5.53814 3.72936 6.17224 3.60326C6.80633 3.47716 7.46352 3.54182 8.06084 3.78924C8.65816 4.03656 9.16868 4.4554 9.52782 4.99285C9.88705 5.5303 10.0787 6.16213 10.0787 6.80851C10.0787 7.67529 9.73437 8.50652 9.12136 9.11944C8.50835 9.73227 7.67687 10.0766 6.80991 10.0766ZM10.3511 4.08511C10.1895 4.08511 10.0315 4.03717 9.89716 3.94741C9.76269 3.85765 9.65802 3.73006 9.59615 3.58078C9.53427 3.43149 9.51806 3.26721 9.54961 3.10869C9.58116 2.95017 9.65898 2.80463 9.77332 2.69037C9.88757 2.57612 10.0332 2.4983 10.1917 2.46675C10.3502 2.4352 10.5145 2.45141 10.6639 2.51329C10.8132 2.57508 10.9408 2.67983 11.0306 2.81421C11.1204 2.94851 11.1683 3.10651 11.1683 3.26809C11.1683 3.48474 11.0822 3.69259 10.929 3.8458C10.7757 3.999 10.5679 4.08511 10.3511 4.08511Z" fill="#0D062D"/>
</svg>
