<svg width="63" height="24" viewBox="0 0 63 24" fill="none" xmlns="http://www.w3.org/2000/svg">
<path d="M14.7479 0C12.3215 0 9.99453 0.963864 8.27885 2.67956L2.67956 8.27885C0.963864 9.99453 0 12.3215 0 14.7479C0 19.8005 4.09596 23.8965 9.1486 23.8965C11.575 23.8965 13.9019 22.9326 15.6176 21.2169L19.4907 17.3438C19.4907 17.3437 19.4907 17.3439 19.4907 17.3438L30.7755 6.05903C31.5949 5.23962 32.7062 4.77929 33.865 4.77929C35.8051 4.77929 37.4499 6.04374 38.0201 7.79349L41.5816 4.23203C39.9569 1.68736 37.108 0 33.865 0C31.4387 0 29.1117 0.963864 27.396 2.67956L12.2382 17.8374C11.4188 18.6568 10.3074 19.1172 9.1486 19.1172C6.73549 19.1172 4.77929 17.161 4.77929 14.7479C4.77929 13.589 5.23962 12.4777 6.05903 11.6583L11.6583 6.05903C12.4777 5.23962 13.589 4.77929 14.7479 4.77929C16.688 4.77929 18.3327 6.0438 18.903 7.7936L22.4645 4.23212C20.8398 1.68741 17.9909 0 14.7479 0Z" fill="#909DA9"/>
<path d="M31.3553 17.8374C30.5358 18.6568 29.4245 19.1172 28.2657 19.1172C26.3258 19.1172 24.6812 17.853 24.1108 16.1036L20.5494 19.665C22.1742 22.2093 25.0229 23.8965 28.2657 23.8965C30.692 23.8965 33.019 22.9326 34.7347 21.2169L49.8925 6.05903C50.7119 5.23962 51.8233 4.77929 52.9821 4.77929C55.3953 4.77929 57.3514 6.73549 57.3514 9.1486C57.3514 10.3074 56.8911 11.4188 56.0717 12.2382L50.4724 17.8374C49.653 18.6568 48.5417 19.1172 47.3828 19.1172C45.4429 19.1172 43.7981 17.8528 43.2278 16.1032L39.6664 19.6646C41.2912 22.2092 44.1399 23.8965 47.3828 23.8965C49.8092 23.8965 52.1362 22.9326 53.8519 21.2169L59.4511 15.6176C61.1668 13.9019 62.1307 11.575 62.1307 9.1486C62.1307 4.09596 58.0348 0 52.9821 0C50.5557 0 48.2288 0.963864 46.5131 2.67956L31.3553 17.8374Z" fill="#909DA9"/>
</svg>
