<svg width="103" height="24" viewBox="0 0 103 24" fill="none" xmlns="http://www.w3.org/2000/svg">
<path fill-rule="evenodd" clip-rule="evenodd" d="M8.96129 16.7275C8.16908 16.7275 7.40931 16.4128 6.84913 15.8526C6.28894 15.2924 5.97424 14.5327 5.97424 13.7405V0H0.00012207V13.7405C0.00012207 18.6894 4.01234 22.7016 8.96129 22.7016H15.5328V16.7275H8.96129ZM26.8836 5.97411C26.1776 5.97411 25.4784 6.11319 24.8261 6.38339C24.1737 6.6536 23.581 7.04964 23.0817 7.54891C22.5825 8.04819 22.1864 8.64091 21.9162 9.29324C21.646 9.94557 21.5069 10.6447 21.5069 11.3508C21.5069 12.0569 21.646 12.7561 21.9162 13.4084C22.1864 14.0607 22.5825 14.6534 23.0817 15.1527C23.581 15.652 24.1737 16.048 24.8261 16.3182C25.4784 16.5884 26.1776 16.7275 26.8836 16.7275C28.3096 16.7275 29.6772 16.161 30.6855 15.1527C31.6939 14.1444 32.2603 12.7768 32.2603 11.3508C32.2603 9.92483 31.6939 8.55724 30.6855 7.54891C29.6772 6.54059 28.3096 5.97411 26.8836 5.97411ZM15.5328 11.3508C15.5328 5.08218 20.615 0 26.8836 0C33.1523 0 38.2345 5.08218 38.2345 11.3508C38.2345 17.6195 33.1523 22.7016 26.8836 22.7016C20.615 22.7016 15.5328 17.6195 15.5328 11.3508ZM91.4041 5.97411C89.9781 5.97411 88.6105 6.54059 87.6022 7.54891C86.5938 8.55724 86.0274 9.92483 86.0274 11.3508C86.0274 12.7768 86.5938 14.1444 87.6022 15.1527C88.6105 16.161 89.9781 16.7275 91.4041 16.7275C92.8301 16.7275 94.1977 16.161 95.206 15.1527C96.2143 14.1444 96.7808 12.7768 96.7808 11.3508C96.7808 9.92483 96.2143 8.55724 95.206 7.54891C94.1977 6.54059 92.8301 5.97411 91.4041 5.97411ZM80.0533 11.3508C80.0533 5.08218 85.1354 0 91.4041 0C97.6727 0 102.755 5.08218 102.755 11.3508C102.755 17.6195 97.6727 22.7016 91.4041 22.7016C85.1354 22.7016 80.0533 17.6195 80.0533 11.3508ZM50.7801 0C44.5115 0 39.4293 5.08218 39.4293 11.3508C39.4293 17.6195 44.5115 22.7016 50.7801 22.7016H67.5076C68.6839 22.7016 69.8184 22.5224 70.8854 22.1903L74.0791 23.8965L77.525 17.442C78.4004 15.7989 78.8583 13.9658 78.8584 12.1042V11.3508C78.8584 5.08218 73.7763 0 67.5076 0H50.7801ZM72.8843 11.3508C72.8843 9.92483 72.3178 8.55724 71.3095 7.54891C70.3012 6.54059 68.9336 5.97411 67.5076 5.97411H50.7801C50.074 5.97411 49.3749 6.11319 48.7225 6.38339C48.0702 6.6536 47.4775 7.04964 46.9782 7.54891C46.4789 8.04819 46.0829 8.64091 45.8127 9.29324C45.5425 9.94557 45.4034 10.6447 45.4034 11.3508C45.4034 12.0569 45.5425 12.7561 45.8127 13.4084C46.0829 14.0607 46.4789 14.6534 46.9782 15.1527C47.4775 15.652 48.0702 16.048 48.7225 16.3182C49.3749 16.5884 50.074 16.7275 50.7801 16.7275H67.5076C68.9264 16.7276 70.2877 16.1668 71.2948 15.1675C72.3019 14.1682 72.8733 12.8114 72.8843 11.3926V11.3508Z" fill="#909DA9"/>
</svg>
