<svg width="864" height="864" viewBox="0 0 864 864" fill="none" xmlns="http://www.w3.org/2000/svg">
<g filter="url(#filter0_f_358_802)">
<mask id="mask0_358_802" style="mask-type:alpha" maskUnits="userSpaceOnUse" x="55" y="55" width="753" height="753">
<circle cx="431.6" cy="431.6" r="376" fill="#D9D9D9"/>
</mask>
<g mask="url(#mask0_358_802)">
<mask id="mask1_358_802" style="mask-type:alpha" maskUnits="userSpaceOnUse" x="-251" y="35" width="1251" height="792">
<rect x="-250.044" y="35.3945" width="1249.73" height="791.533" fill="#D9D9D9"/>
</mask>
<g mask="url(#mask1_358_802)">
<mask id="mask2_358_802" style="mask-type:alpha" maskUnits="userSpaceOnUse" x="-251" y="32" width="1406" height="831">
<rect x="1154.81" y="862.16" width="1404.85" height="830.044" transform="rotate(180 1154.81 862.16)" fill="#D9D9D9"/>
</mask>
<g mask="url(#mask2_358_802)">
<g filter="url(#filter1_f_358_802)">
<g clip-path="url(#paint0_angular_358_802_clip_path)" data-figma-skip-parse="true"><g transform="matrix(-1.41283 -1.24222 -1.24445 1.0836 885.123 1345.55)"><foreignObject x="-1039.89" y="-1039.89" width="2079.77" height="2079.77"><div xmlns="http://www.w3.org/1999/xhtml" style="background:conic-gradient(from 90deg,rgba(131, 128, 231, 1) 0deg,rgba(165, 166, 255, 0.25) 16.9322deg,rgba(91, 92, 234, 0.2) 30.4561deg,rgba(91, 92, 234, 0) 41.383deg,rgba(199, 200, 255, 0.2) 348.768deg,rgba(146, 210, 250, 0.8) 353.261deg,rgba(113, 143, 248, 0.5) 360deg);height:100%;width:100%;opacity:1"></div></foreignObject></g></g><path d="M986.108 1276.16L596.771 900.872L1064.59 1202.3L625.253 871.551L1135.04 1122.84L650.515 840.255L1196.68 1038.66L672.279 807.327L1248.84 950.664L690.308 773.128L1290.95 859.832L704.403 738.032L1322.54 767.152L714.411 702.425L1343.28 673.642L720.221 666.695L1352.93 580.325L721.77 631.234L1351.38 488.224L719.041 596.432L1338.66 398.347L712.065 562.669L1314.9 311.68L700.916 530.315L1280.36 229.173L685.718 499.725L1235.43 151.728L666.637 471.234L1180.59 80.1949L643.882 445.153L1116.45 15.357L617.702 421.77L1043.7 -42.075L588.385 401.339L963.147 -91.4722L556.251 384.086L875.673 -132.293L521.652 370.198L782.235 -164.091L484.968 359.828L683.856 -186.517L446.6 353.089L581.615 -199.325L406.969 350.056L476.631 -202.376L366.509 350.762L370.055 -195.635L325.664 355.199L263.054 -179.177L284.88 363.317L156.801 -153.182L244.605 375.03L52.4606 -117.935L205.28 390.207L-48.8251 -73.822L167.336 408.683L-145.946 -21.3258L131.188 430.256L-237.838 38.9777L85.1388 472.232L-386.188 95.2954L56.5145 501.176L-602.292 77.466L30.3538 528.675L-558.945 235.167L12.0981 542.329L-534.068 343.929L-9.66617 575.257L-586.229 431.92L-27.6949 609.456L-628.337 522.753L-41.7902 644.552L-659.932 615.432L-51.7977 680.16L-680.666 708.942L-57.6081 715.89L-690.313 802.26L-59.1572 751.35L-688.767 894.361L-56.4284 786.152L-676.044 984.237L-49.4515 819.915L-652.285 1070.9L-38.303 852.269L-617.75 1153.41L-23.1049 882.859L-572.816 1230.86L-4.02376 911.351L-517.977 1302.39L18.7312 937.431L-453.832 1367.23L44.9109 960.814L-381.086 1424.66L74.2284 981.245L-300.534 1474.06L106.363 998.499L-213.06 1514.88L140.961 1012.39L-119.622 1546.68L177.645 1022.76L-21.2432 1569.1L216.013 1029.5L80.9983 1581.91L255.644 1032.53L185.982 1584.96L296.103 1031.82L292.558 1578.22L336.949 1027.39L399.559 1561.76L377.733 1019.27L505.812 1535.77L418.008 1007.55L610.152 1500.52L457.333 992.377L711.438 1456.41L495.277 973.901L808.559 1403.91L531.425 952.329L900.451 1343.61L565.38 927.897L986.108 1276.16Z" data-figma-gradient-fill="{&#34;type&#34;:&#34;GRADIENT_ANGULAR&#34;,&#34;stops&#34;:[{&#34;color&#34;:{&#34;r&#34;:0.51592314243316650,&#34;g&#34;:0.50238072872161865,&#34;b&#34;:0.90865385532379150,&#34;a&#34;:1.0},&#34;position&#34;:0.0},{&#34;color&#34;:{&#34;r&#34;:0.64903843402862549,&#34;g&#34;:0.65149247646331787,&#34;b&#34;:1.0,&#34;a&#34;:0.250},&#34;position&#34;:0.047033976763486862},{&#34;color&#34;:{&#34;r&#34;:0.35686275362968445,&#34;g&#34;:0.36078432202339172,&#34;b&#34;:0.91764706373214722,&#34;a&#34;:0.20000000298023224},&#34;position&#34;:0.084600381553173065},{&#34;color&#34;:{&#34;r&#34;:0.35686275362968445,&#34;g&#34;:0.36078432202339172,&#34;b&#34;:0.91764706373214722,&#34;a&#34;:0.0},&#34;position&#34;:0.11495278775691986},{&#34;color&#34;:{&#34;r&#34;:0.78365385532379150,&#34;g&#34;:0.78516674041748047,&#34;b&#34;:1.0,&#34;a&#34;:0.20000000298023224},&#34;position&#34;:0.96880066394805908},{&#34;color&#34;:{&#34;r&#34;:0.57525885105133057,&#34;g&#34;:0.82716685533523560,&#34;b&#34;:0.98076921701431274,&#34;a&#34;:0.80000001192092896},&#34;position&#34;:0.98128062486648560},{&#34;color&#34;:{&#34;r&#34;:0.44313725829124451,&#34;g&#34;:0.56078433990478516,&#34;b&#34;:0.97254902124404907,&#34;a&#34;:0.50},&#34;position&#34;:1.0}],&#34;stopsVar&#34;:[{&#34;color&#34;:{&#34;r&#34;:0.51592314243316650,&#34;g&#34;:0.50238072872161865,&#34;b&#34;:0.90865385532379150,&#34;a&#34;:1.0},&#34;position&#34;:0.0},{&#34;color&#34;:{&#34;r&#34;:0.64903843402862549,&#34;g&#34;:0.65149247646331787,&#34;b&#34;:1.0,&#34;a&#34;:0.250},&#34;position&#34;:0.047033976763486862},{&#34;color&#34;:{&#34;r&#34;:0.35686275362968445,&#34;g&#34;:0.36078432202339172,&#34;b&#34;:0.91764706373214722,&#34;a&#34;:0.20000000298023224},&#34;position&#34;:0.084600381553173065},{&#34;color&#34;:{&#34;r&#34;:0.35686275362968445,&#34;g&#34;:0.36078432202339172,&#34;b&#34;:0.91764706373214722,&#34;a&#34;:0.0},&#34;position&#34;:0.11495278775691986},{&#34;color&#34;:{&#34;r&#34;:0.78365385532379150,&#34;g&#34;:0.78516674041748047,&#34;b&#34;:1.0,&#34;a&#34;:0.20000000298023224},&#34;position&#34;:0.96880066394805908},{&#34;color&#34;:{&#34;r&#34;:0.57525885105133057,&#34;g&#34;:0.82716685533523560,&#34;b&#34;:0.98076921701431274,&#34;a&#34;:0.80000001192092896},&#34;position&#34;:0.98128062486648560},{&#34;color&#34;:{&#34;r&#34;:0.44313725829124451,&#34;g&#34;:0.56078433990478516,&#34;b&#34;:0.97254902124404907,&#34;a&#34;:0.50},&#34;position&#34;:1.0}],&#34;transform&#34;:{&#34;m00&#34;:-2825.6560058593750,&#34;m01&#34;:-2488.893066406250,&#34;m02&#34;:3542.3972167968750,&#34;m10&#34;:-2484.4416503906250,&#34;m11&#34;:2167.1940917968750,&#34;m12&#34;:1504.1717529296875},&#34;opacity&#34;:1.0,&#34;blendMode&#34;:&#34;NORMAL&#34;,&#34;visible&#34;:true}"/>
</g>
</g>
</g>
<mask id="mask3_358_802" style="mask-type:alpha" maskUnits="userSpaceOnUse" x="-125" y="35" width="1251" height="792">
<rect width="1249.73" height="791.533" transform="matrix(-1 0 0 1 1125.54 35.3945)" fill="#D9D9D9"/>
</mask>
<g mask="url(#mask3_358_802)">
<mask id="mask4_358_802" style="mask-type:alpha" maskUnits="userSpaceOnUse" x="-280" y="32" width="1406" height="831">
<rect width="1404.85" height="830.044" transform="matrix(1 9.79008e-08 7.80662e-08 -1 -279.312 862.16)" fill="#D9D9D9"/>
</mask>
<g mask="url(#mask4_358_802)">
<g filter="url(#filter2_f_358_802)">
<g clip-path="url(#paint1_angular_358_802_clip_path)" data-figma-skip-parse="true"><g transform="matrix(1.41283 -1.24222 1.24445 1.0836 -9.62375 1345.55)"><foreignObject x="-1039.89" y="-1039.89" width="2079.77" height="2079.77"><div xmlns="http://www.w3.org/1999/xhtml" style="background:conic-gradient(from 90deg,rgba(131, 128, 231, 1) 0deg,rgba(165, 166, 255, 0.25) 16.9322deg,rgba(91, 92, 234, 0.2) 30.4561deg,rgba(91, 92, 234, 0) 41.383deg,rgba(199, 200, 255, 0.2) 348.768deg,rgba(146, 210, 250, 0.8) 353.261deg,rgba(113, 143, 248, 0.5) 360deg);height:100%;width:100%;opacity:1"></div></foreignObject></g></g><path d="M-110.609 1276.16L278.728 900.872L-189.091 1202.3L250.246 871.551L-259.539 1122.84L224.984 840.255L-321.182 1038.66L203.22 807.327L-373.343 950.664L185.191 773.128L-415.452 859.832L171.096 738.032L-447.046 767.152L161.088 702.425L-467.78 673.642L155.278 666.695L-477.427 580.325L153.729 631.234L-475.881 488.224L156.457 596.432L-463.159 398.347L163.434 562.669L-439.399 311.68L174.583 530.315L-404.864 229.173L189.781 499.725L-359.93 151.728L208.862 471.234L-305.091 80.1949L231.617 445.153L-240.947 15.357L257.797 421.77L-168.2 -42.075L287.114 401.339L-87.6485 -91.4722L319.248 384.086L-0.174476 -132.293L353.847 370.198L93.2639 -164.091L390.531 359.828L191.643 -186.517L428.899 353.089L293.884 -199.325L468.53 350.056L398.868 -202.376L508.989 350.762L505.444 -195.635L549.835 355.199L612.445 -179.177L590.619 363.317L718.697 -153.182L630.893 375.03L823.038 -117.935L670.219 390.207L924.324 -73.822L708.163 408.683L1021.45 -21.3258L744.311 430.256L1113.34 38.9777L790.36 472.232L1261.69 95.2954L818.984 501.176L1477.79 77.466L845.145 528.675L1434.44 235.167L863.401 542.329L1409.57 343.929L885.165 575.257L1461.73 431.92L903.194 609.456L1503.84 522.753L917.289 644.552L1535.43 615.432L927.297 680.16L1556.17 708.942L933.107 715.89L1565.81 802.26L934.656 751.35L1564.27 894.361L931.927 786.152L1551.54 984.237L924.95 819.915L1527.78 1070.9L913.802 852.269L1493.25 1153.41L898.604 882.859L1448.32 1230.86L879.523 911.351L1393.48 1302.39L856.768 937.431L1329.33 1367.23L830.588 960.814L1256.58 1424.66L801.271 981.245L1176.03 1474.06L769.136 998.499L1088.56 1514.88L734.538 1012.39L995.121 1546.68L697.854 1022.76L896.742 1569.1L659.486 1029.5L794.501 1581.91L619.855 1032.53L689.517 1584.96L579.395 1031.82L582.941 1578.22L538.55 1027.39L475.94 1561.76L497.766 1019.27L369.687 1535.77L457.491 1007.55L265.347 1500.52L418.166 992.377L164.061 1456.41L380.222 973.901L66.9397 1403.91L344.074 952.329L-24.9524 1343.61L310.119 927.897L-110.609 1276.16Z" data-figma-gradient-fill="{&#34;type&#34;:&#34;GRADIENT_ANGULAR&#34;,&#34;stops&#34;:[{&#34;color&#34;:{&#34;r&#34;:0.51592314243316650,&#34;g&#34;:0.50238072872161865,&#34;b&#34;:0.90865385532379150,&#34;a&#34;:1.0},&#34;position&#34;:0.0},{&#34;color&#34;:{&#34;r&#34;:0.64903843402862549,&#34;g&#34;:0.65149247646331787,&#34;b&#34;:1.0,&#34;a&#34;:0.250},&#34;position&#34;:0.047033976763486862},{&#34;color&#34;:{&#34;r&#34;:0.35686275362968445,&#34;g&#34;:0.36078432202339172,&#34;b&#34;:0.91764706373214722,&#34;a&#34;:0.20000000298023224},&#34;position&#34;:0.084600381553173065},{&#34;color&#34;:{&#34;r&#34;:0.35686275362968445,&#34;g&#34;:0.36078432202339172,&#34;b&#34;:0.91764706373214722,&#34;a&#34;:0.0},&#34;position&#34;:0.11495278775691986},{&#34;color&#34;:{&#34;r&#34;:0.78365385532379150,&#34;g&#34;:0.78516674041748047,&#34;b&#34;:1.0,&#34;a&#34;:0.20000000298023224},&#34;position&#34;:0.96880066394805908},{&#34;color&#34;:{&#34;r&#34;:0.57525885105133057,&#34;g&#34;:0.82716685533523560,&#34;b&#34;:0.98076921701431274,&#34;a&#34;:0.80000001192092896},&#34;position&#34;:0.98128062486648560},{&#34;color&#34;:{&#34;r&#34;:0.44313725829124451,&#34;g&#34;:0.56078433990478516,&#34;b&#34;:0.97254902124404907,&#34;a&#34;:0.50},&#34;position&#34;:1.0}],&#34;stopsVar&#34;:[{&#34;color&#34;:{&#34;r&#34;:0.51592314243316650,&#34;g&#34;:0.50238072872161865,&#34;b&#34;:0.90865385532379150,&#34;a&#34;:1.0},&#34;position&#34;:0.0},{&#34;color&#34;:{&#34;r&#34;:0.64903843402862549,&#34;g&#34;:0.65149247646331787,&#34;b&#34;:1.0,&#34;a&#34;:0.250},&#34;position&#34;:0.047033976763486862},{&#34;color&#34;:{&#34;r&#34;:0.35686275362968445,&#34;g&#34;:0.36078432202339172,&#34;b&#34;:0.91764706373214722,&#34;a&#34;:0.20000000298023224},&#34;position&#34;:0.084600381553173065},{&#34;color&#34;:{&#34;r&#34;:0.35686275362968445,&#34;g&#34;:0.36078432202339172,&#34;b&#34;:0.91764706373214722,&#34;a&#34;:0.0},&#34;position&#34;:0.11495278775691986},{&#34;color&#34;:{&#34;r&#34;:0.78365385532379150,&#34;g&#34;:0.78516674041748047,&#34;b&#34;:1.0,&#34;a&#34;:0.20000000298023224},&#34;position&#34;:0.96880066394805908},{&#34;color&#34;:{&#34;r&#34;:0.57525885105133057,&#34;g&#34;:0.82716685533523560,&#34;b&#34;:0.98076921701431274,&#34;a&#34;:0.80000001192092896},&#34;position&#34;:0.98128062486648560},{&#34;color&#34;:{&#34;r&#34;:0.44313725829124451,&#34;g&#34;:0.56078433990478516,&#34;b&#34;:0.97254902124404907,&#34;a&#34;:0.50},&#34;position&#34;:1.0}],&#34;transform&#34;:{&#34;m00&#34;:2825.6560058593750,&#34;m01&#34;:2488.893066406250,&#34;m02&#34;:-2666.8981933593750,&#34;m10&#34;:-2484.4416503906250,&#34;m11&#34;:2167.1940917968750,&#34;m12&#34;:1504.1717529296875},&#34;opacity&#34;:1.0,&#34;blendMode&#34;:&#34;NORMAL&#34;,&#34;visible&#34;:true}"/>
</g>
</g>
</g>
</g>
</g>
<g filter="url(#filter3_f_358_802)">
<mask id="mask5_358_802" style="mask-type:alpha" maskUnits="userSpaceOnUse" x="163" y="163" width="537" height="537">
<circle cx="431.6" cy="431.6" r="268" fill="#D9D9D9"/>
</mask>
<g mask="url(#mask5_358_802)">
<mask id="mask6_358_802" style="mask-type:alpha" maskUnits="userSpaceOnUse" x="-55" y="149" width="892" height="565">
<rect x="-54.2524" y="149.198" width="890.768" height="564.178" fill="#D9D9D9"/>
</mask>
<g mask="url(#mask6_358_802)">
<mask id="mask7_358_802" style="mask-type:alpha" maskUnits="userSpaceOnUse" x="-55" y="146" width="1003" height="593">
<rect x="947.08" y="738.489" width="1001.33" height="591.627" transform="rotate(180 947.08 738.489)" fill="#D9D9D9"/>
</mask>
<g mask="url(#mask7_358_802)">
<g filter="url(#filter4_f_358_802)">
<g clip-path="url(#paint2_angular_358_802_clip_path)" data-figma-skip-parse="true"><g transform="matrix(-1.00702 -0.885413 -0.886999 0.772351 754.855 1083.03)"><foreignObject x="-1040.1" y="-1040.1" width="2080.21" height="2080.21"><div xmlns="http://www.w3.org/1999/xhtml" style="background:conic-gradient(from 90deg,rgba(131, 128, 231, 1) 0deg,rgba(165, 166, 255, 0.25) 16.9322deg,rgba(91, 92, 234, 0.2) 30.4561deg,rgba(91, 92, 234, 0) 41.383deg,rgba(199, 200, 255, 0.2) 348.768deg,rgba(146, 210, 250, 0.8) 353.261deg,rgba(113, 143, 248, 0.5) 360deg);height:100%;width:100%;opacity:1"></div></foreignObject></g></g><path d="M826.834 1033.57L549.328 766.08L882.774 980.927L569.629 745.182L932.987 924.292L587.635 722.875L976.924 864.288L603.148 699.405L1014.1 801.571L615.998 675.029L1044.12 736.828L626.045 650.014L1066.64 670.77L633.178 624.634L1081.41 604.119L637.319 599.167L1088.29 537.605L638.423 573.892L1087.19 471.959L636.478 549.086L1078.12 407.898L631.506 525.021L1061.19 346.125L623.559 501.96L1036.57 287.316L612.727 480.157L1004.54 232.116L599.126 459.849L965.455 181.13L582.907 441.26L919.735 134.916L564.247 424.593L867.883 93.9799L543.351 410.031L810.469 58.7714L520.447 397.733L748.12 29.6755L495.786 387.834L681.521 7.01123L469.639 380.443L611.4 -8.97316L442.292 375.64L538.525 -18.1026L414.044 373.478L463.697 -20.2769L385.206 373.981L387.733 -15.4725L356.092 377.143L311.466 -3.74192L327.023 382.93L235.733 14.7865L298.317 391.278L161.362 39.9095L270.287 402.096L89.1693 71.3519L243.242 415.265L19.9448 108.769L217.477 430.641L-45.5528 151.752L184.654 460.561L-151.292 191.893L164.252 481.191L-305.323 179.185L145.605 500.791L-274.427 291.589L132.593 510.523L-256.695 369.111L117.08 533.993L-293.874 431.828L104.23 558.369L-323.887 496.57L94.1836 583.384L-346.407 562.629L87.0505 608.765L-361.186 629.28L82.9091 634.232L-368.061 695.793L81.8049 659.506L-366.959 761.44L83.7498 684.312L-357.891 825.501L88.7228 708.378L-340.957 887.274L96.6691 731.438L-316.341 946.082L107.502 753.242L-284.314 1001.28L121.102 773.549L-245.226 1052.27L137.321 792.139L-199.506 1098.48L155.981 808.806L-147.655 1139.42L176.878 823.368L-90.2406 1174.63L199.782 835.666L-27.892 1203.72L224.442 845.565L38.7077 1226.39L250.59 852.956L108.829 1242.37L277.937 857.759L181.703 1251.5L306.184 859.921L256.532 1253.68L335.023 859.418L332.496 1248.87L364.136 856.255L408.762 1237.14L393.205 850.468L484.495 1218.61L421.912 842.12L558.866 1193.49L449.941 831.302L631.059 1162.05L476.987 818.133L700.284 1124.63L502.752 802.757L765.781 1081.65L526.954 785.343L826.834 1033.57Z" data-figma-gradient-fill="{&#34;type&#34;:&#34;GRADIENT_ANGULAR&#34;,&#34;stops&#34;:[{&#34;color&#34;:{&#34;r&#34;:0.51592314243316650,&#34;g&#34;:0.50238072872161865,&#34;b&#34;:0.90865385532379150,&#34;a&#34;:1.0},&#34;position&#34;:0.0},{&#34;color&#34;:{&#34;r&#34;:0.64903843402862549,&#34;g&#34;:0.65149247646331787,&#34;b&#34;:1.0,&#34;a&#34;:0.250},&#34;position&#34;:0.047033976763486862},{&#34;color&#34;:{&#34;r&#34;:0.35686275362968445,&#34;g&#34;:0.36078432202339172,&#34;b&#34;:0.91764706373214722,&#34;a&#34;:0.20000000298023224},&#34;position&#34;:0.084600381553173065},{&#34;color&#34;:{&#34;r&#34;:0.35686275362968445,&#34;g&#34;:0.36078432202339172,&#34;b&#34;:0.91764706373214722,&#34;a&#34;:0.0},&#34;position&#34;:0.11495278775691986},{&#34;color&#34;:{&#34;r&#34;:0.78365385532379150,&#34;g&#34;:0.78516674041748047,&#34;b&#34;:1.0,&#34;a&#34;:0.20000000298023224},&#34;position&#34;:0.96880066394805908},{&#34;color&#34;:{&#34;r&#34;:0.57525885105133057,&#34;g&#34;:0.82716685533523560,&#34;b&#34;:0.98076921701431274,&#34;a&#34;:0.80000001192092896},&#34;position&#34;:0.98128062486648560},{&#34;color&#34;:{&#34;r&#34;:0.44313725829124451,&#34;g&#34;:0.56078433990478516,&#34;b&#34;:0.97254902124404907,&#34;a&#34;:0.50},&#34;position&#34;:1.0}],&#34;stopsVar&#34;:[{&#34;color&#34;:{&#34;r&#34;:0.51592314243316650,&#34;g&#34;:0.50238072872161865,&#34;b&#34;:0.90865385532379150,&#34;a&#34;:1.0},&#34;position&#34;:0.0},{&#34;color&#34;:{&#34;r&#34;:0.64903843402862549,&#34;g&#34;:0.65149247646331787,&#34;b&#34;:1.0,&#34;a&#34;:0.250},&#34;position&#34;:0.047033976763486862},{&#34;color&#34;:{&#34;r&#34;:0.35686275362968445,&#34;g&#34;:0.36078432202339172,&#34;b&#34;:0.91764706373214722,&#34;a&#34;:0.20000000298023224},&#34;position&#34;:0.084600381553173065},{&#34;color&#34;:{&#34;r&#34;:0.35686275362968445,&#34;g&#34;:0.36078432202339172,&#34;b&#34;:0.91764706373214722,&#34;a&#34;:0.0},&#34;position&#34;:0.11495278775691986},{&#34;color&#34;:{&#34;r&#34;:0.78365385532379150,&#34;g&#34;:0.78516674041748047,&#34;b&#34;:1.0,&#34;a&#34;:0.20000000298023224},&#34;position&#34;:0.96880066394805908},{&#34;color&#34;:{&#34;r&#34;:0.57525885105133057,&#34;g&#34;:0.82716685533523560,&#34;b&#34;:0.98076921701431274,&#34;a&#34;:0.80000001192092896},&#34;position&#34;:0.98128062486648560},{&#34;color&#34;:{&#34;r&#34;:0.44313725829124451,&#34;g&#34;:0.56078433990478516,&#34;b&#34;:0.97254902124404907,&#34;a&#34;:0.50},&#34;position&#34;:1.0}],&#34;transform&#34;:{&#34;m00&#34;:-2014.0314941406250,&#34;m01&#34;:-1773.9984130859375,&#34;m02&#34;:2648.8703613281250,&#34;m10&#34;:-1770.8254394531250,&#34;m11&#34;:1544.7023925781250,&#34;m12&#34;:1196.0920410156250},&#34;opacity&#34;:1.0,&#34;blendMode&#34;:&#34;NORMAL&#34;,&#34;visible&#34;:true}"/>
</g>
</g>
</g>
<mask id="mask8_358_802" style="mask-type:alpha" maskUnits="userSpaceOnUse" x="35" y="149" width="892" height="565">
<rect width="890.768" height="564.178" transform="matrix(-1 0 0 1 926.219 149.198)" fill="#D9D9D9"/>
</mask>
<g mask="url(#mask8_358_802)">
<mask id="mask9_358_802" style="mask-type:alpha" maskUnits="userSpaceOnUse" x="-76" y="146" width="1003" height="593">
<rect width="1001.33" height="591.627" transform="matrix(1 9.79008e-08 7.80662e-08 -1 -75.1136 738.489)" fill="#D9D9D9"/>
</mask>
<g mask="url(#mask9_358_802)">
<g filter="url(#filter5_f_358_802)">
<g clip-path="url(#paint3_angular_358_802_clip_path)" data-figma-skip-parse="true"><g transform="matrix(1.00702 -0.885413 0.886999 0.772351 117.111 1083.03)"><foreignObject x="-1040.1" y="-1040.1" width="2080.21" height="2080.21"><div xmlns="http://www.w3.org/1999/xhtml" style="background:conic-gradient(from 90deg,rgba(131, 128, 231, 1) 0deg,rgba(165, 166, 255, 0.25) 16.9322deg,rgba(91, 92, 234, 0.2) 30.4561deg,rgba(91, 92, 234, 0) 41.383deg,rgba(199, 200, 255, 0.2) 348.768deg,rgba(146, 210, 250, 0.8) 353.261deg,rgba(113, 143, 248, 0.5) 360deg);height:100%;width:100%;opacity:1"></div></foreignObject></g></g><path d="M45.1319 1033.57L322.638 766.08L-10.8077 980.927L302.337 745.182L-61.0208 924.292L284.331 722.875L-104.957 864.288L268.818 699.405L-142.136 801.571L255.968 675.029L-172.15 736.828L245.921 650.014L-194.669 670.77L238.788 624.634L-209.448 604.119L234.647 599.167L-216.324 537.605L233.543 573.892L-215.222 471.959L235.488 549.086L-206.154 407.898L240.461 525.021L-189.219 346.125L248.407 501.96L-164.603 287.316L259.239 480.157L-132.576 232.116L272.84 459.849L-93.4884 181.13L289.059 441.26L-47.7685 134.916L307.719 424.593L4.08267 93.9799L328.615 410.031L61.4972 58.7714L351.519 397.733L123.846 29.6755L376.18 387.834L190.445 7.01123L402.327 380.443L260.566 -8.97316L429.675 375.64L333.441 -18.1026L457.922 373.478L408.27 -20.2769L486.76 373.981L484.233 -15.4725L515.874 377.143L560.5 -3.74192L544.943 382.93L636.233 14.7865L573.65 391.278L710.604 39.9095L601.679 402.096L782.797 71.3519L628.725 415.265L852.021 108.769L654.49 430.641L917.519 151.752L687.312 460.561L1023.26 191.893L707.714 481.191L1177.29 179.185L726.361 500.791L1146.39 291.589L739.373 510.523L1128.66 369.111L754.886 533.993L1165.84 431.828L767.736 558.369L1195.85 496.57L777.783 583.384L1218.37 562.629L784.916 608.765L1233.15 629.28L789.057 634.232L1240.03 695.793L790.161 659.506L1238.93 761.44L788.216 684.312L1229.86 825.501L783.243 708.378L1212.92 887.274L775.297 731.438L1188.31 946.082L764.464 753.242L1156.28 1001.28L750.864 773.549L1117.19 1052.27L734.645 792.139L1071.47 1098.48L715.985 808.806L1019.62 1139.42L695.088 823.368L962.207 1174.63L672.184 835.666L899.858 1203.72L647.524 845.565L833.258 1226.39L621.376 852.956L763.137 1242.37L594.029 857.759L690.263 1251.5L565.782 859.921L615.434 1253.68L536.943 859.418L539.471 1248.87L507.83 856.255L463.204 1237.14L478.761 850.468L387.471 1218.61L450.054 842.12L313.1 1193.49L422.025 831.302L240.907 1162.05L394.979 818.133L171.682 1124.63L369.214 802.757L106.185 1081.65L345.012 785.343L45.1319 1033.57Z" data-figma-gradient-fill="{&#34;type&#34;:&#34;GRADIENT_ANGULAR&#34;,&#34;stops&#34;:[{&#34;color&#34;:{&#34;r&#34;:0.51592314243316650,&#34;g&#34;:0.50238072872161865,&#34;b&#34;:0.90865385532379150,&#34;a&#34;:1.0},&#34;position&#34;:0.0},{&#34;color&#34;:{&#34;r&#34;:0.64903843402862549,&#34;g&#34;:0.65149247646331787,&#34;b&#34;:1.0,&#34;a&#34;:0.250},&#34;position&#34;:0.047033976763486862},{&#34;color&#34;:{&#34;r&#34;:0.35686275362968445,&#34;g&#34;:0.36078432202339172,&#34;b&#34;:0.91764706373214722,&#34;a&#34;:0.20000000298023224},&#34;position&#34;:0.084600381553173065},{&#34;color&#34;:{&#34;r&#34;:0.35686275362968445,&#34;g&#34;:0.36078432202339172,&#34;b&#34;:0.91764706373214722,&#34;a&#34;:0.0},&#34;position&#34;:0.11495278775691986},{&#34;color&#34;:{&#34;r&#34;:0.78365385532379150,&#34;g&#34;:0.78516674041748047,&#34;b&#34;:1.0,&#34;a&#34;:0.20000000298023224},&#34;position&#34;:0.96880066394805908},{&#34;color&#34;:{&#34;r&#34;:0.57525885105133057,&#34;g&#34;:0.82716685533523560,&#34;b&#34;:0.98076921701431274,&#34;a&#34;:0.80000001192092896},&#34;position&#34;:0.98128062486648560},{&#34;color&#34;:{&#34;r&#34;:0.44313725829124451,&#34;g&#34;:0.56078433990478516,&#34;b&#34;:0.97254902124404907,&#34;a&#34;:0.50},&#34;position&#34;:1.0}],&#34;stopsVar&#34;:[{&#34;color&#34;:{&#34;r&#34;:0.51592314243316650,&#34;g&#34;:0.50238072872161865,&#34;b&#34;:0.90865385532379150,&#34;a&#34;:1.0},&#34;position&#34;:0.0},{&#34;color&#34;:{&#34;r&#34;:0.64903843402862549,&#34;g&#34;:0.65149247646331787,&#34;b&#34;:1.0,&#34;a&#34;:0.250},&#34;position&#34;:0.047033976763486862},{&#34;color&#34;:{&#34;r&#34;:0.35686275362968445,&#34;g&#34;:0.36078432202339172,&#34;b&#34;:0.91764706373214722,&#34;a&#34;:0.20000000298023224},&#34;position&#34;:0.084600381553173065},{&#34;color&#34;:{&#34;r&#34;:0.35686275362968445,&#34;g&#34;:0.36078432202339172,&#34;b&#34;:0.91764706373214722,&#34;a&#34;:0.0},&#34;position&#34;:0.11495278775691986},{&#34;color&#34;:{&#34;r&#34;:0.78365385532379150,&#34;g&#34;:0.78516674041748047,&#34;b&#34;:1.0,&#34;a&#34;:0.20000000298023224},&#34;position&#34;:0.96880066394805908},{&#34;color&#34;:{&#34;r&#34;:0.57525885105133057,&#34;g&#34;:0.82716685533523560,&#34;b&#34;:0.98076921701431274,&#34;a&#34;:0.80000001192092896},&#34;position&#34;:0.98128062486648560},{&#34;color&#34;:{&#34;r&#34;:0.44313725829124451,&#34;g&#34;:0.56078433990478516,&#34;b&#34;:0.97254902124404907,&#34;a&#34;:0.50},&#34;position&#34;:1.0}],&#34;transform&#34;:{&#34;m00&#34;:2014.0314941406250,&#34;m01&#34;:1773.9984130859375,&#34;m02&#34;:-1776.9042968750,&#34;m10&#34;:-1770.8254394531250,&#34;m11&#34;:1544.7023925781250,&#34;m12&#34;:1196.0920410156250},&#34;opacity&#34;:1.0,&#34;blendMode&#34;:&#34;NORMAL&#34;,&#34;visible&#34;:true}"/>
</g>
</g>
</g>
</g>
</g>
<g filter="url(#filter6_f_358_802)">
<mask id="mask10_358_802" style="mask-type:alpha" maskUnits="userSpaceOnUse" x="262" y="262" width="339" height="339">
<circle cx="431.6" cy="431.6" r="169" fill="#D9D9D9"/>
</mask>
<g mask="url(#mask10_358_802)">
<mask id="mask11_358_802" style="mask-type:alpha" maskUnits="userSpaceOnUse" x="125" y="253" width="562" height="357">
<rect x="125.223" y="253.519" width="561.716" height="355.769" fill="#D9D9D9"/>
</mask>
<g mask="url(#mask11_358_802)">
<mask id="mask12_358_802" style="mask-type:alpha" maskUnits="userSpaceOnUse" x="125" y="252" width="632" height="374">
<rect x="756.66" y="625.123" width="631.437" height="373.078" transform="rotate(180 756.66 625.123)" fill="#D9D9D9"/>
</mask>
<g mask="url(#mask12_358_802)">
<g filter="url(#filter7_f_358_802)">
<g clip-path="url(#paint4_angular_358_802_clip_path)" data-figma-skip-parse="true"><g transform="matrix(-0.635021 -0.558339 -0.559339 0.487042 635.444 842.39)"><foreignObject x="-1040.54" y="-1040.54" width="2081.08" height="2081.08"><div xmlns="http://www.w3.org/1999/xhtml" style="background:conic-gradient(from 90deg,rgba(131, 128, 231, 1) 0deg,rgba(165, 166, 255, 0.25) 16.9322deg,rgba(91, 92, 234, 0.2) 30.4561deg,rgba(91, 92, 234, 0) 41.383deg,rgba(199, 200, 255, 0.2) 348.768deg,rgba(146, 210, 250, 0.8) 353.261deg,rgba(113, 143, 248, 0.5) 360deg);height:100%;width:100%;opacity:1"></div></foreignObject></g></g><path d="M680.833 811.201L505.839 642.523L716.109 778.004L518.641 629.344L747.773 742.29L529.995 615.277L775.479 704.452L539.778 600.477L798.924 664.903L547.881 585.106L817.851 624.076L554.216 569.331L832.051 582.42L558.714 553.327L841.371 540.39L561.326 537.267L845.707 498.447L562.022 521.329L845.012 457.05L560.796 505.687L839.293 416.654L557.66 490.511L828.614 377.7L552.649 475.969L813.092 340.615L545.818 462.22L792.896 305.806L537.242 449.414L768.247 273.654L527.014 437.692L739.416 244.512L515.247 427.182L706.719 218.698L502.07 417.999L670.514 196.496L487.626 410.244L631.197 178.148L472.075 404.001L589.199 163.856L455.587 399.34L544.981 153.776L438.342 396.312L499.027 148.019L420.529 394.949L451.84 146.648L402.344 395.266L403.937 149.678L383.985 397.26L355.844 157.075L365.654 400.909L308.087 168.759L347.552 406.173L261.189 184.601L329.877 412.995L215.664 204.429L312.822 421.299L172.011 228.024L296.574 430.996L130.709 255.129L275.877 449.863L64.0303 280.442L263.011 462.872L-33.1014 272.428L251.253 475.232L-13.6186 343.31L243.047 481.369L-2.43689 392.195L233.265 496.169L-25.8817 431.744L225.162 511.541L-44.8081 472.57L218.826 527.315L-59.0088 514.227L214.328 543.32L-68.3282 556.257L211.717 559.379L-72.6641 598.2L211.02 575.317L-71.9692 639.596L212.247 590.96L-66.2509 679.993L215.383 606.135L-55.5719 718.947L220.394 620.677L-40.0493 756.031L227.225 634.427L-19.8531 790.84L235.801 647.232L4.79548 822.992L246.029 658.955L33.6263 852.135L257.796 669.465L66.3235 877.948L270.973 678.648L102.529 900.151L285.416 686.403L141.846 918.499L300.967 692.645L183.843 932.791L317.455 697.306L228.061 942.87L334.7 700.335L274.016 948.627L352.513 701.698L321.203 949.999L370.699 701.381L369.105 946.969L389.057 699.387L417.198 939.572L407.388 695.737L464.956 927.888L425.491 690.473L511.854 912.045L443.166 683.651L557.378 892.218L460.221 675.347L601.031 868.622L476.468 665.651L642.334 841.518L491.73 654.669L680.833 811.201Z" data-figma-gradient-fill="{&#34;type&#34;:&#34;GRADIENT_ANGULAR&#34;,&#34;stops&#34;:[{&#34;color&#34;:{&#34;r&#34;:0.51592314243316650,&#34;g&#34;:0.50238072872161865,&#34;b&#34;:0.90865385532379150,&#34;a&#34;:1.0},&#34;position&#34;:0.0},{&#34;color&#34;:{&#34;r&#34;:0.64903843402862549,&#34;g&#34;:0.65149247646331787,&#34;b&#34;:1.0,&#34;a&#34;:0.250},&#34;position&#34;:0.047033976763486862},{&#34;color&#34;:{&#34;r&#34;:0.35686275362968445,&#34;g&#34;:0.36078432202339172,&#34;b&#34;:0.91764706373214722,&#34;a&#34;:0.20000000298023224},&#34;position&#34;:0.084600381553173065},{&#34;color&#34;:{&#34;r&#34;:0.35686275362968445,&#34;g&#34;:0.36078432202339172,&#34;b&#34;:0.91764706373214722,&#34;a&#34;:0.0},&#34;position&#34;:0.11495278775691986},{&#34;color&#34;:{&#34;r&#34;:0.78365385532379150,&#34;g&#34;:0.78516674041748047,&#34;b&#34;:1.0,&#34;a&#34;:0.20000000298023224},&#34;position&#34;:0.96880066394805908},{&#34;color&#34;:{&#34;r&#34;:0.57525885105133057,&#34;g&#34;:0.82716685533523560,&#34;b&#34;:0.98076921701431274,&#34;a&#34;:0.80000001192092896},&#34;position&#34;:0.98128062486648560},{&#34;color&#34;:{&#34;r&#34;:0.44313725829124451,&#34;g&#34;:0.56078433990478516,&#34;b&#34;:0.97254902124404907,&#34;a&#34;:0.50},&#34;position&#34;:1.0}],&#34;stopsVar&#34;:[{&#34;color&#34;:{&#34;r&#34;:0.51592314243316650,&#34;g&#34;:0.50238072872161865,&#34;b&#34;:0.90865385532379150,&#34;a&#34;:1.0},&#34;position&#34;:0.0},{&#34;color&#34;:{&#34;r&#34;:0.64903843402862549,&#34;g&#34;:0.65149247646331787,&#34;b&#34;:1.0,&#34;a&#34;:0.250},&#34;position&#34;:0.047033976763486862},{&#34;color&#34;:{&#34;r&#34;:0.35686275362968445,&#34;g&#34;:0.36078432202339172,&#34;b&#34;:0.91764706373214722,&#34;a&#34;:0.20000000298023224},&#34;position&#34;:0.084600381553173065},{&#34;color&#34;:{&#34;r&#34;:0.35686275362968445,&#34;g&#34;:0.36078432202339172,&#34;b&#34;:0.91764706373214722,&#34;a&#34;:0.0},&#34;position&#34;:0.11495278775691986},{&#34;color&#34;:{&#34;r&#34;:0.78365385532379150,&#34;g&#34;:0.78516674041748047,&#34;b&#34;:1.0,&#34;a&#34;:0.20000000298023224},&#34;position&#34;:0.96880066394805908},{&#34;color&#34;:{&#34;r&#34;:0.57525885105133057,&#34;g&#34;:0.82716685533523560,&#34;b&#34;:0.98076921701431274,&#34;a&#34;:0.80000001192092896},&#34;position&#34;:0.98128062486648560},{&#34;color&#34;:{&#34;r&#34;:0.44313725829124451,&#34;g&#34;:0.56078433990478516,&#34;b&#34;:0.97254902124404907,&#34;a&#34;:0.50},&#34;position&#34;:1.0}],&#34;transform&#34;:{&#34;m00&#34;:-1270.0422363281250,&#34;m01&#34;:-1118.6781005859375,&#34;m02&#34;:1829.8040771484375,&#34;m10&#34;:-1116.677246093750,&#34;m11&#34;:974.0847167968750,&#34;m12&#34;:913.68658447265625},&#34;opacity&#34;:1.0,&#34;blendMode&#34;:&#34;NORMAL&#34;,&#34;visible&#34;:true}"/>
</g>
</g>
</g>
<mask id="mask13_358_802" style="mask-type:alpha" maskUnits="userSpaceOnUse" x="181" y="253" width="563" height="357">
<rect width="561.716" height="355.769" transform="matrix(-1 0 0 1 743.505 253.519)" fill="#D9D9D9"/>
</mask>
<g mask="url(#mask13_358_802)">
<mask id="mask14_358_802" style="mask-type:alpha" maskUnits="userSpaceOnUse" x="112" y="252" width="632" height="374">
<rect width="631.437" height="373.078" transform="matrix(1 9.79008e-08 7.80662e-08 -1 112.068 625.123)" fill="#D9D9D9"/>
</mask>
<g mask="url(#mask14_358_802)">
<g filter="url(#filter8_f_358_802)">
<g clip-path="url(#paint5_angular_358_802_clip_path)" data-figma-skip-parse="true"><g transform="matrix(0.635021 -0.558339 0.559339 0.487042 233.284 842.39)"><foreignObject x="-1040.54" y="-1040.54" width="2081.08" height="2081.08"><div xmlns="http://www.w3.org/1999/xhtml" style="background:conic-gradient(from 90deg,rgba(131, 128, 231, 1) 0deg,rgba(165, 166, 255, 0.25) 16.9322deg,rgba(91, 92, 234, 0.2) 30.4561deg,rgba(91, 92, 234, 0) 41.383deg,rgba(199, 200, 255, 0.2) 348.768deg,rgba(146, 210, 250, 0.8) 353.261deg,rgba(113, 143, 248, 0.5) 360deg);height:100%;width:100%;opacity:1"></div></foreignObject></g></g><path d="M187.894 811.201L362.889 642.523L152.619 778.004L350.087 629.344L120.955 742.29L338.733 615.277L93.2486 704.452L328.95 600.477L69.8038 664.903L320.847 585.106L50.8773 624.076L314.512 569.331L36.6766 582.42L310.013 553.327L27.3572 540.39L307.402 537.267L23.0213 498.447L306.706 521.329L23.7162 457.05L307.932 505.687L29.4345 416.654L311.068 490.511L40.1135 377.7L316.079 475.969L55.6361 340.615L322.91 462.22L75.8324 305.806L331.486 449.414L100.481 273.654L341.714 437.692L129.312 244.512L353.481 427.182L162.009 218.698L366.658 417.999L198.214 196.496L381.101 410.244L237.531 178.148L396.652 404.001L279.529 163.856L413.141 399.34L323.747 153.776L430.386 396.312L369.701 148.019L448.199 394.949L416.888 146.648L466.384 395.266L464.79 149.678L484.743 397.26L512.884 157.075L503.074 400.909L560.641 168.759L521.176 406.173L607.539 184.601L538.851 412.995L653.064 204.429L555.906 421.299L696.716 228.024L572.154 430.996L738.019 255.129L592.851 449.863L804.698 280.442L605.717 462.872L901.829 272.428L617.475 475.232L882.347 343.31L625.681 481.369L871.165 392.195L635.463 496.169L894.61 431.744L643.566 511.541L913.536 472.57L649.902 527.315L927.737 514.227L654.4 543.32L937.056 556.257L657.011 559.379L941.392 598.2L657.708 575.317L940.697 639.596L656.481 590.96L934.979 679.993L653.345 606.135L924.3 718.947L648.334 620.677L908.777 756.031L641.503 634.427L888.581 790.84L632.927 647.232L863.932 822.992L622.699 658.955L835.102 852.135L610.932 669.465L802.404 877.948L597.755 678.648L766.199 900.151L583.312 686.403L726.882 918.499L567.761 692.645L684.885 932.791L551.272 697.306L640.667 942.87L534.028 700.335L594.712 948.627L516.215 701.698L547.525 949.999L498.029 701.381L499.623 946.969L479.671 699.387L451.53 939.572L461.34 695.737L403.772 927.888L443.237 690.473L356.874 912.045L425.562 683.651L311.35 892.218L408.507 675.347L267.697 868.622L392.26 665.651L226.394 841.518L376.998 654.669L187.894 811.201Z" data-figma-gradient-fill="{&#34;type&#34;:&#34;GRADIENT_ANGULAR&#34;,&#34;stops&#34;:[{&#34;color&#34;:{&#34;r&#34;:0.51592314243316650,&#34;g&#34;:0.50238072872161865,&#34;b&#34;:0.90865385532379150,&#34;a&#34;:1.0},&#34;position&#34;:0.0},{&#34;color&#34;:{&#34;r&#34;:0.64903843402862549,&#34;g&#34;:0.65149247646331787,&#34;b&#34;:1.0,&#34;a&#34;:0.250},&#34;position&#34;:0.047033976763486862},{&#34;color&#34;:{&#34;r&#34;:0.35686275362968445,&#34;g&#34;:0.36078432202339172,&#34;b&#34;:0.91764706373214722,&#34;a&#34;:0.20000000298023224},&#34;position&#34;:0.084600381553173065},{&#34;color&#34;:{&#34;r&#34;:0.35686275362968445,&#34;g&#34;:0.36078432202339172,&#34;b&#34;:0.91764706373214722,&#34;a&#34;:0.0},&#34;position&#34;:0.11495278775691986},{&#34;color&#34;:{&#34;r&#34;:0.78365385532379150,&#34;g&#34;:0.78516674041748047,&#34;b&#34;:1.0,&#34;a&#34;:0.20000000298023224},&#34;position&#34;:0.96880066394805908},{&#34;color&#34;:{&#34;r&#34;:0.57525885105133057,&#34;g&#34;:0.82716685533523560,&#34;b&#34;:0.98076921701431274,&#34;a&#34;:0.80000001192092896},&#34;position&#34;:0.98128062486648560},{&#34;color&#34;:{&#34;r&#34;:0.44313725829124451,&#34;g&#34;:0.56078433990478516,&#34;b&#34;:0.97254902124404907,&#34;a&#34;:0.50},&#34;position&#34;:1.0}],&#34;stopsVar&#34;:[{&#34;color&#34;:{&#34;r&#34;:0.51592314243316650,&#34;g&#34;:0.50238072872161865,&#34;b&#34;:0.90865385532379150,&#34;a&#34;:1.0},&#34;position&#34;:0.0},{&#34;color&#34;:{&#34;r&#34;:0.64903843402862549,&#34;g&#34;:0.65149247646331787,&#34;b&#34;:1.0,&#34;a&#34;:0.250},&#34;position&#34;:0.047033976763486862},{&#34;color&#34;:{&#34;r&#34;:0.35686275362968445,&#34;g&#34;:0.36078432202339172,&#34;b&#34;:0.91764706373214722,&#34;a&#34;:0.20000000298023224},&#34;position&#34;:0.084600381553173065},{&#34;color&#34;:{&#34;r&#34;:0.35686275362968445,&#34;g&#34;:0.36078432202339172,&#34;b&#34;:0.91764706373214722,&#34;a&#34;:0.0},&#34;position&#34;:0.11495278775691986},{&#34;color&#34;:{&#34;r&#34;:0.78365385532379150,&#34;g&#34;:0.78516674041748047,&#34;b&#34;:1.0,&#34;a&#34;:0.20000000298023224},&#34;position&#34;:0.96880066394805908},{&#34;color&#34;:{&#34;r&#34;:0.57525885105133057,&#34;g&#34;:0.82716685533523560,&#34;b&#34;:0.98076921701431274,&#34;a&#34;:0.80000001192092896},&#34;position&#34;:0.98128062486648560},{&#34;color&#34;:{&#34;r&#34;:0.44313725829124451,&#34;g&#34;:0.56078433990478516,&#34;b&#34;:0.97254902124404907,&#34;a&#34;:0.50},&#34;position&#34;:1.0}],&#34;transform&#34;:{&#34;m00&#34;:1270.0422363281250,&#34;m01&#34;:1118.6781005859375,&#34;m02&#34;:-961.07611083984375,&#34;m10&#34;:-1116.677246093750,&#34;m11&#34;:974.0847167968750,&#34;m12&#34;:913.68658447265625},&#34;opacity&#34;:1.0,&#34;blendMode&#34;:&#34;NORMAL&#34;,&#34;visible&#34;:true}"/>
</g>
</g>
</g>
</g>
</g>
<defs>
<filter id="filter0_f_358_802" x="-2.28882e-05" y="9.91821e-05" width="863.2" height="863.2" filterUnits="userSpaceOnUse" color-interpolation-filters="sRGB">
<feFlood flood-opacity="0" result="BackgroundImageFix"/>
<feBlend mode="normal" in="SourceGraphic" in2="BackgroundImageFix" result="shape"/>
<feGaussianBlur stdDeviation="27.8" result="effect1_foregroundBlur_358_802"/>
</filter>
<filter id="filter1_f_358_802" x="-790.313" y="-302.376" width="2243.24" height="1987.34" filterUnits="userSpaceOnUse" color-interpolation-filters="sRGB">
<feFlood flood-opacity="0" result="BackgroundImageFix"/>
<feBlend mode="normal" in="SourceGraphic" in2="BackgroundImageFix" result="shape"/>
<feGaussianBlur stdDeviation="50" result="effect1_foregroundBlur_358_802"/>
</filter>
<clipPath id="paint0_angular_358_802_clip_path"><path d="M986.108 1276.16L596.771 900.872L1064.59 1202.3L625.253 871.551L1135.04 1122.84L650.515 840.255L1196.68 1038.66L672.279 807.327L1248.84 950.664L690.308 773.128L1290.95 859.832L704.403 738.032L1322.54 767.152L714.411 702.425L1343.28 673.642L720.221 666.695L1352.93 580.325L721.77 631.234L1351.38 488.224L719.041 596.432L1338.66 398.347L712.065 562.669L1314.9 311.68L700.916 530.315L1280.36 229.173L685.718 499.725L1235.43 151.728L666.637 471.234L1180.59 80.1949L643.882 445.153L1116.45 15.357L617.702 421.77L1043.7 -42.075L588.385 401.339L963.147 -91.4722L556.251 384.086L875.673 -132.293L521.652 370.198L782.235 -164.091L484.968 359.828L683.856 -186.517L446.6 353.089L581.615 -199.325L406.969 350.056L476.631 -202.376L366.509 350.762L370.055 -195.635L325.664 355.199L263.054 -179.177L284.88 363.317L156.801 -153.182L244.605 375.03L52.4606 -117.935L205.28 390.207L-48.8251 -73.822L167.336 408.683L-145.946 -21.3258L131.188 430.256L-237.838 38.9777L85.1388 472.232L-386.188 95.2954L56.5145 501.176L-602.292 77.466L30.3538 528.675L-558.945 235.167L12.0981 542.329L-534.068 343.929L-9.66617 575.257L-586.229 431.92L-27.6949 609.456L-628.337 522.753L-41.7902 644.552L-659.932 615.432L-51.7977 680.16L-680.666 708.942L-57.6081 715.89L-690.313 802.26L-59.1572 751.35L-688.767 894.361L-56.4284 786.152L-676.044 984.237L-49.4515 819.915L-652.285 1070.9L-38.303 852.269L-617.75 1153.41L-23.1049 882.859L-572.816 1230.86L-4.02376 911.351L-517.977 1302.39L18.7312 937.431L-453.832 1367.23L44.9109 960.814L-381.086 1424.66L74.2284 981.245L-300.534 1474.06L106.363 998.499L-213.06 1514.88L140.961 1012.39L-119.622 1546.68L177.645 1022.76L-21.2432 1569.1L216.013 1029.5L80.9983 1581.91L255.644 1032.53L185.982 1584.96L296.103 1031.82L292.558 1578.22L336.949 1027.39L399.559 1561.76L377.733 1019.27L505.812 1535.77L418.008 1007.55L610.152 1500.52L457.333 992.377L711.438 1456.41L495.277 973.901L808.559 1403.91L531.425 952.329L900.451 1343.61L565.38 927.897L986.108 1276.16Z"/></clipPath><filter id="filter2_f_358_802" x="-577.427" y="-302.376" width="2243.24" height="1987.34" filterUnits="userSpaceOnUse" color-interpolation-filters="sRGB">
<feFlood flood-opacity="0" result="BackgroundImageFix"/>
<feBlend mode="normal" in="SourceGraphic" in2="BackgroundImageFix" result="shape"/>
<feGaussianBlur stdDeviation="50" result="effect1_foregroundBlur_358_802"/>
</filter>
<clipPath id="paint1_angular_358_802_clip_path"><path d="M-110.609 1276.16L278.728 900.872L-189.091 1202.3L250.246 871.551L-259.539 1122.84L224.984 840.255L-321.182 1038.66L203.22 807.327L-373.343 950.664L185.191 773.128L-415.452 859.832L171.096 738.032L-447.046 767.152L161.088 702.425L-467.78 673.642L155.278 666.695L-477.427 580.325L153.729 631.234L-475.881 488.224L156.457 596.432L-463.159 398.347L163.434 562.669L-439.399 311.68L174.583 530.315L-404.864 229.173L189.781 499.725L-359.93 151.728L208.862 471.234L-305.091 80.1949L231.617 445.153L-240.947 15.357L257.797 421.77L-168.2 -42.075L287.114 401.339L-87.6485 -91.4722L319.248 384.086L-0.174476 -132.293L353.847 370.198L93.2639 -164.091L390.531 359.828L191.643 -186.517L428.899 353.089L293.884 -199.325L468.53 350.056L398.868 -202.376L508.989 350.762L505.444 -195.635L549.835 355.199L612.445 -179.177L590.619 363.317L718.697 -153.182L630.893 375.03L823.038 -117.935L670.219 390.207L924.324 -73.822L708.163 408.683L1021.45 -21.3258L744.311 430.256L1113.34 38.9777L790.36 472.232L1261.69 95.2954L818.984 501.176L1477.79 77.466L845.145 528.675L1434.44 235.167L863.401 542.329L1409.57 343.929L885.165 575.257L1461.73 431.92L903.194 609.456L1503.84 522.753L917.289 644.552L1535.43 615.432L927.297 680.16L1556.17 708.942L933.107 715.89L1565.81 802.26L934.656 751.35L1564.27 894.361L931.927 786.152L1551.54 984.237L924.95 819.915L1527.78 1070.9L913.802 852.269L1493.25 1153.41L898.604 882.859L1448.32 1230.86L879.523 911.351L1393.48 1302.39L856.768 937.431L1329.33 1367.23L830.588 960.814L1256.58 1424.66L801.271 981.245L1176.03 1474.06L769.136 998.499L1088.56 1514.88L734.538 1012.39L995.121 1546.68L697.854 1022.76L896.742 1569.1L659.486 1029.5L794.501 1581.91L619.855 1032.53L689.517 1584.96L579.395 1031.82L582.941 1578.22L538.55 1027.39L475.94 1561.76L497.766 1019.27L369.687 1535.77L457.491 1007.55L265.347 1500.52L418.166 992.377L164.061 1456.41L380.222 973.901L66.9397 1403.91L344.074 952.329L-24.9524 1343.61L310.119 927.897L-110.609 1276.16Z"/></clipPath><filter id="filter3_f_358_802" x="128.4" y="128.4" width="606.4" height="606.4" filterUnits="userSpaceOnUse" color-interpolation-filters="sRGB">
<feFlood flood-opacity="0" result="BackgroundImageFix"/>
<feBlend mode="normal" in="SourceGraphic" in2="BackgroundImageFix" result="shape"/>
<feGaussianBlur stdDeviation="17.6" result="effect1_foregroundBlur_358_802"/>
</filter>
<filter id="filter4_f_358_802" x="-468.061" y="-120.277" width="1656.35" height="1473.95" filterUnits="userSpaceOnUse" color-interpolation-filters="sRGB">
<feFlood flood-opacity="0" result="BackgroundImageFix"/>
<feBlend mode="normal" in="SourceGraphic" in2="BackgroundImageFix" result="shape"/>
<feGaussianBlur stdDeviation="50" result="effect1_foregroundBlur_358_802"/>
</filter>
<clipPath id="paint2_angular_358_802_clip_path"><path d="M826.834 1033.57L549.328 766.08L882.774 980.927L569.629 745.182L932.987 924.292L587.635 722.875L976.924 864.288L603.148 699.405L1014.1 801.571L615.998 675.029L1044.12 736.828L626.045 650.014L1066.64 670.77L633.178 624.634L1081.41 604.119L637.319 599.167L1088.29 537.605L638.423 573.892L1087.19 471.959L636.478 549.086L1078.12 407.898L631.506 525.021L1061.19 346.125L623.559 501.96L1036.57 287.316L612.727 480.157L1004.54 232.116L599.126 459.849L965.455 181.13L582.907 441.26L919.735 134.916L564.247 424.593L867.883 93.9799L543.351 410.031L810.469 58.7714L520.447 397.733L748.12 29.6755L495.786 387.834L681.521 7.01123L469.639 380.443L611.4 -8.97316L442.292 375.64L538.525 -18.1026L414.044 373.478L463.697 -20.2769L385.206 373.981L387.733 -15.4725L356.092 377.143L311.466 -3.74192L327.023 382.93L235.733 14.7865L298.317 391.278L161.362 39.9095L270.287 402.096L89.1693 71.3519L243.242 415.265L19.9448 108.769L217.477 430.641L-45.5528 151.752L184.654 460.561L-151.292 191.893L164.252 481.191L-305.323 179.185L145.605 500.791L-274.427 291.589L132.593 510.523L-256.695 369.111L117.08 533.993L-293.874 431.828L104.23 558.369L-323.887 496.57L94.1836 583.384L-346.407 562.629L87.0505 608.765L-361.186 629.28L82.9091 634.232L-368.061 695.793L81.8049 659.506L-366.959 761.44L83.7498 684.312L-357.891 825.501L88.7228 708.378L-340.957 887.274L96.6691 731.438L-316.341 946.082L107.502 753.242L-284.314 1001.28L121.102 773.549L-245.226 1052.27L137.321 792.139L-199.506 1098.48L155.981 808.806L-147.655 1139.42L176.878 823.368L-90.2406 1174.63L199.782 835.666L-27.892 1203.72L224.442 845.565L38.7077 1226.39L250.59 852.956L108.829 1242.37L277.937 857.759L181.703 1251.5L306.184 859.921L256.532 1253.68L335.023 859.418L332.496 1248.87L364.136 856.255L408.762 1237.14L393.205 850.468L484.495 1218.61L421.912 842.12L558.866 1193.49L449.941 831.302L631.059 1162.05L476.987 818.133L700.284 1124.63L502.752 802.757L765.781 1081.65L526.954 785.343L826.834 1033.57Z"/></clipPath><filter id="filter5_f_358_802" x="-316.324" y="-120.277" width="1656.35" height="1473.95" filterUnits="userSpaceOnUse" color-interpolation-filters="sRGB">
<feFlood flood-opacity="0" result="BackgroundImageFix"/>
<feBlend mode="normal" in="SourceGraphic" in2="BackgroundImageFix" result="shape"/>
<feGaussianBlur stdDeviation="50" result="effect1_foregroundBlur_358_802"/>
</filter>
<clipPath id="paint3_angular_358_802_clip_path"><path d="M45.1319 1033.57L322.638 766.08L-10.8077 980.927L302.337 745.182L-61.0208 924.292L284.331 722.875L-104.957 864.288L268.818 699.405L-142.136 801.571L255.968 675.029L-172.15 736.828L245.921 650.014L-194.669 670.77L238.788 624.634L-209.448 604.119L234.647 599.167L-216.324 537.605L233.543 573.892L-215.222 471.959L235.488 549.086L-206.154 407.898L240.461 525.021L-189.219 346.125L248.407 501.96L-164.603 287.316L259.239 480.157L-132.576 232.116L272.84 459.849L-93.4884 181.13L289.059 441.26L-47.7685 134.916L307.719 424.593L4.08267 93.9799L328.615 410.031L61.4972 58.7714L351.519 397.733L123.846 29.6755L376.18 387.834L190.445 7.01123L402.327 380.443L260.566 -8.97316L429.675 375.64L333.441 -18.1026L457.922 373.478L408.27 -20.2769L486.76 373.981L484.233 -15.4725L515.874 377.143L560.5 -3.74192L544.943 382.93L636.233 14.7865L573.65 391.278L710.604 39.9095L601.679 402.096L782.797 71.3519L628.725 415.265L852.021 108.769L654.49 430.641L917.519 151.752L687.312 460.561L1023.26 191.893L707.714 481.191L1177.29 179.185L726.361 500.791L1146.39 291.589L739.373 510.523L1128.66 369.111L754.886 533.993L1165.84 431.828L767.736 558.369L1195.85 496.57L777.783 583.384L1218.37 562.629L784.916 608.765L1233.15 629.28L789.057 634.232L1240.03 695.793L790.161 659.506L1238.93 761.44L788.216 684.312L1229.86 825.501L783.243 708.378L1212.92 887.274L775.297 731.438L1188.31 946.082L764.464 753.242L1156.28 1001.28L750.864 773.549L1117.19 1052.27L734.645 792.139L1071.47 1098.48L715.985 808.806L1019.62 1139.42L695.088 823.368L962.207 1174.63L672.184 835.666L899.858 1203.72L647.524 845.565L833.258 1226.39L621.376 852.956L763.137 1242.37L594.029 857.759L690.263 1251.5L565.782 859.921L615.434 1253.68L536.943 859.418L539.471 1248.87L507.83 856.255L463.204 1237.14L478.761 850.468L387.471 1218.61L450.054 842.12L313.1 1193.49L422.025 831.302L240.907 1162.05L394.979 818.133L171.682 1124.63L369.214 802.757L106.185 1081.65L345.012 785.343L45.1319 1033.57Z"/></clipPath><filter id="filter6_f_358_802" x="207" y="207" width="449.2" height="449.2" filterUnits="userSpaceOnUse" color-interpolation-filters="sRGB">
<feFlood flood-opacity="0" result="BackgroundImageFix"/>
<feBlend mode="normal" in="SourceGraphic" in2="BackgroundImageFix" result="shape"/>
<feGaussianBlur stdDeviation="27.8" result="effect1_foregroundBlur_358_802"/>
</filter>
<filter id="filter7_f_358_802" x="-172.664" y="46.6479" width="1118.37" height="1003.35" filterUnits="userSpaceOnUse" color-interpolation-filters="sRGB">
<feFlood flood-opacity="0" result="BackgroundImageFix"/>
<feBlend mode="normal" in="SourceGraphic" in2="BackgroundImageFix" result="shape"/>
<feGaussianBlur stdDeviation="50" result="effect1_foregroundBlur_358_802"/>
</filter>
<clipPath id="paint4_angular_358_802_clip_path"><path d="M680.833 811.201L505.839 642.523L716.109 778.004L518.641 629.344L747.773 742.29L529.995 615.277L775.479 704.452L539.778 600.477L798.924 664.903L547.881 585.106L817.851 624.076L554.216 569.331L832.051 582.42L558.714 553.327L841.371 540.39L561.326 537.267L845.707 498.447L562.022 521.329L845.012 457.05L560.796 505.687L839.293 416.654L557.66 490.511L828.614 377.7L552.649 475.969L813.092 340.615L545.818 462.22L792.896 305.806L537.242 449.414L768.247 273.654L527.014 437.692L739.416 244.512L515.247 427.182L706.719 218.698L502.07 417.999L670.514 196.496L487.626 410.244L631.197 178.148L472.075 404.001L589.199 163.856L455.587 399.34L544.981 153.776L438.342 396.312L499.027 148.019L420.529 394.949L451.84 146.648L402.344 395.266L403.937 149.678L383.985 397.26L355.844 157.075L365.654 400.909L308.087 168.759L347.552 406.173L261.189 184.601L329.877 412.995L215.664 204.429L312.822 421.299L172.011 228.024L296.574 430.996L130.709 255.129L275.877 449.863L64.0303 280.442L263.011 462.872L-33.1014 272.428L251.253 475.232L-13.6186 343.31L243.047 481.369L-2.43689 392.195L233.265 496.169L-25.8817 431.744L225.162 511.541L-44.8081 472.57L218.826 527.315L-59.0088 514.227L214.328 543.32L-68.3282 556.257L211.717 559.379L-72.6641 598.2L211.02 575.317L-71.9692 639.596L212.247 590.96L-66.2509 679.993L215.383 606.135L-55.5719 718.947L220.394 620.677L-40.0493 756.031L227.225 634.427L-19.8531 790.84L235.801 647.232L4.79548 822.992L246.029 658.955L33.6263 852.135L257.796 669.465L66.3235 877.948L270.973 678.648L102.529 900.151L285.416 686.403L141.846 918.499L300.967 692.645L183.843 932.791L317.455 697.306L228.061 942.87L334.7 700.335L274.016 948.627L352.513 701.698L321.203 949.999L370.699 701.381L369.105 946.969L389.057 699.387L417.198 939.572L407.388 695.737L464.956 927.888L425.491 690.473L511.854 912.045L443.166 683.651L557.378 892.218L460.221 675.347L601.031 868.622L476.468 665.651L642.334 841.518L491.73 654.669L680.833 811.201Z"/></clipPath><filter id="filter8_f_358_802" x="-76.9787" y="46.6479" width="1118.37" height="1003.35" filterUnits="userSpaceOnUse" color-interpolation-filters="sRGB">
<feFlood flood-opacity="0" result="BackgroundImageFix"/>
<feBlend mode="normal" in="SourceGraphic" in2="BackgroundImageFix" result="shape"/>
<feGaussianBlur stdDeviation="50" result="effect1_foregroundBlur_358_802"/>
</filter>
<clipPath id="paint5_angular_358_802_clip_path"><path d="M187.894 811.201L362.889 642.523L152.619 778.004L350.087 629.344L120.955 742.29L338.733 615.277L93.2486 704.452L328.95 600.477L69.8038 664.903L320.847 585.106L50.8773 624.076L314.512 569.331L36.6766 582.42L310.013 553.327L27.3572 540.39L307.402 537.267L23.0213 498.447L306.706 521.329L23.7162 457.05L307.932 505.687L29.4345 416.654L311.068 490.511L40.1135 377.7L316.079 475.969L55.6361 340.615L322.91 462.22L75.8324 305.806L331.486 449.414L100.481 273.654L341.714 437.692L129.312 244.512L353.481 427.182L162.009 218.698L366.658 417.999L198.214 196.496L381.101 410.244L237.531 178.148L396.652 404.001L279.529 163.856L413.141 399.34L323.747 153.776L430.386 396.312L369.701 148.019L448.199 394.949L416.888 146.648L466.384 395.266L464.79 149.678L484.743 397.26L512.884 157.075L503.074 400.909L560.641 168.759L521.176 406.173L607.539 184.601L538.851 412.995L653.064 204.429L555.906 421.299L696.716 228.024L572.154 430.996L738.019 255.129L592.851 449.863L804.698 280.442L605.717 462.872L901.829 272.428L617.475 475.232L882.347 343.31L625.681 481.369L871.165 392.195L635.463 496.169L894.61 431.744L643.566 511.541L913.536 472.57L649.902 527.315L927.737 514.227L654.4 543.32L937.056 556.257L657.011 559.379L941.392 598.2L657.708 575.317L940.697 639.596L656.481 590.96L934.979 679.993L653.345 606.135L924.3 718.947L648.334 620.677L908.777 756.031L641.503 634.427L888.581 790.84L632.927 647.232L863.932 822.992L622.699 658.955L835.102 852.135L610.932 669.465L802.404 877.948L597.755 678.648L766.199 900.151L583.312 686.403L726.882 918.499L567.761 692.645L684.885 932.791L551.272 697.306L640.667 942.87L534.028 700.335L594.712 948.627L516.215 701.698L547.525 949.999L498.029 701.381L499.623 946.969L479.671 699.387L451.53 939.572L461.34 695.737L403.772 927.888L443.237 690.473L356.874 912.045L425.562 683.651L311.35 892.218L408.507 675.347L267.697 868.622L392.26 665.651L226.394 841.518L376.998 654.669L187.894 811.201Z"/></clipPath></defs>
</svg>
