<svg width="33" height="34" viewBox="0 0 33 34" fill="none" xmlns="http://www.w3.org/2000/svg">
<g clip-path="url(#clip0_358_728)">
<path fill-rule="evenodd" clip-rule="evenodd" d="M11.3145 0.428223C9.45301 0.428223 7.6678 1.17153 6.35152 2.49462L0 8.87895V11.8013C0 13.8659 0.882288 15.7234 2.28856 17.0136C0.882288 18.3038 0 20.1612 0 22.2259V25.1482L6.35152 31.5326C7.6678 32.8557 9.45301 33.5989 11.3145 33.5989C13.3685 33.5989 15.2165 32.7121 16.5 31.2986C17.7835 32.7121 19.6315 33.5989 21.6855 33.5989C23.547 33.5989 25.3322 32.8557 26.6485 31.5326L33 25.1482V22.2259C33 20.1612 32.1177 18.3038 30.7115 17.0136C32.1177 15.7234 33 13.8659 33 11.8013V8.87895L26.6485 2.49462C25.3322 1.17153 23.547 0.428223 21.6855 0.428223C19.6315 0.428223 17.7835 1.31507 16.5 2.72862C15.2165 1.31507 13.3685 0.428223 11.3145 0.428223ZM21.251 17.0136C21.1719 16.941 21.0943 16.8665 21.0182 16.79L16.5 12.2484L11.9818 16.79C11.9057 16.8665 11.8281 16.941 11.749 17.0136C11.8281 17.0861 11.9057 17.1607 11.9818 17.2371L16.5 21.7787L21.0182 17.2371C21.0943 17.1607 21.1719 17.0861 21.251 17.0136ZM18.3333 25.1482V26.5439C18.3333 28.4047 19.8342 29.9133 21.6855 29.9133C22.5745 29.9133 23.4271 29.5583 24.0558 28.9264L29.3334 23.6215V22.2259C29.3334 20.365 27.8325 18.8564 25.9812 18.8564C25.0922 18.8564 24.2396 19.2114 23.6109 19.8433L18.3333 25.1482ZM14.6667 25.1482L9.38908 19.8433C8.76043 19.2114 7.90782 18.8564 7.01879 18.8564C5.16746 18.8564 3.66666 20.365 3.66666 22.2259V23.6215L8.94424 28.9264C9.57289 29.5583 10.4255 29.9133 11.3145 29.9133C13.1658 29.9133 14.6667 28.4047 14.6667 26.5439V25.1482ZM14.6667 7.48332V8.87895L9.38908 14.1839C8.76043 14.8158 7.90782 15.1708 7.01879 15.1708C5.16746 15.1708 3.66666 13.6622 3.66666 11.8013V10.4056L8.94424 5.10075C9.57289 4.46886 10.4255 4.11386 11.3145 4.11386C13.1658 4.11386 14.6667 5.62242 14.6667 7.48332ZM23.6109 14.1839L18.3333 8.87895V7.48332C18.3333 5.62242 19.8342 4.11386 21.6855 4.11386C22.5745 4.11386 23.4271 4.46886 24.0558 5.10075L29.3334 10.4056V11.8013C29.3334 13.6622 27.8325 15.1708 25.9812 15.1708C25.0922 15.1708 24.2396 14.8158 23.6109 14.1839Z" fill="#FF630B"/>
</g>
<defs>
<clipPath id="clip0_358_728">
<rect width="33" height="34" fill="white"/>
</clipPath>
</defs>
</svg>
