<svg width="35" height="34" viewBox="0 0 35 34" fill="none" xmlns="http://www.w3.org/2000/svg">
<path d="M17.5 9.03125C17.5 13.4323 13.9023 17 9.4643 17H1.42859V9.03125C1.42859 4.63023 5.0263 1.0625 9.4643 1.0625C13.9023 1.0625 17.5 4.63023 17.5 9.03125Z" fill="#17CF97"/>
<path d="M17.5 24.9688C17.5 20.5677 21.0977 17 25.5357 17H33.5714V24.9688C33.5714 29.3698 29.9737 32.9375 25.5357 32.9375C21.0977 32.9375 17.5 29.3698 17.5 24.9688Z" fill="#17CF97"/>
<path d="M1.42859 24.9688C1.42859 29.3698 5.0263 32.9375 9.4643 32.9375H17.5V24.9688C17.5 20.5677 13.9023 17 9.4643 17C5.0263 17 1.42859 20.5677 1.42859 24.9688Z" fill="#17CF97"/>
<path d="M33.5714 9.03125C33.5714 4.63023 29.9737 1.0625 25.5357 1.0625H17.5V9.03125C17.5 13.4323 21.0977 17 25.5357 17C29.9737 17 33.5714 13.4323 33.5714 9.03125Z" fill="#17CF97"/>
</svg>
