<svg width="309" height="255" viewBox="0 0 309 255" fill="none" xmlns="http://www.w3.org/2000/svg">
<g opacity="0.7">
<mask id="mask0_116_844" style="mask-type:alpha" maskUnits="userSpaceOnUse" x="0" y="0" width="309" height="255">
<path d="M0 19C0 8.50659 8.50659 0 19 0H290C300.493 0 309 8.50659 309 19V235C309 246.046 300.046 255 289 255H20C8.95431 255 0 246.046 0 235V19Z" fill="#D9D9D9"/>
</mask>
<g mask="url(#mask0_116_844)">
<g filter="url(#filter0_f_116_844)">
<ellipse cx="99.2133" cy="99.2242" rx="99.2133" ry="99.2242" transform="matrix(1.19572 0.192128 -0.10386 0.722944 115.947 -82.3086)" fill="#EBE4FF"/>
</g>
<g filter="url(#filter1_f_116_844)">
<ellipse cx="57.6999" cy="57.7062" rx="57.6999" ry="57.7062" transform="matrix(1.19572 0.192128 -0.10386 0.722944 164.483 -57.1699)" fill="#B1C3FF"/>
</g>
<g filter="url(#filter2_f_116_844)">
<ellipse cx="70.9358" cy="70.9436" rx="70.9358" ry="70.9436" transform="matrix(1.19572 0.192128 -0.10386 0.722944 196.89 -113.46)" fill="#71C1FF"/>
</g>
</g>
</g>
<defs>
<filter id="filter0_f_116_844" x="-68.8125" y="-239.755" width="586.171" height="496.483" filterUnits="userSpaceOnUse" color-interpolation-filters="sRGB">
<feFlood flood-opacity="0" result="BackgroundImageFix"/>
<feBlend mode="normal" in="SourceGraphic" in2="BackgroundImageFix" result="shape"/>
<feGaussianBlur stdDeviation="87" result="effect1_foregroundBlur_116_844"/>
</filter>
<filter id="filter1_f_116_844" x="-15.7742" y="-221.542" width="486.514" height="434.354" filterUnits="userSpaceOnUse" color-interpolation-filters="sRGB">
<feFlood flood-opacity="0" result="BackgroundImageFix"/>
<feBlend mode="normal" in="SourceGraphic" in2="BackgroundImageFix" result="shape"/>
<feGaussianBlur stdDeviation="87" result="effect1_foregroundBlur_116_844"/>
</filter>
<filter id="filter2_f_116_844" x="15.197" y="-275.625" width="518.288" height="454.163" filterUnits="userSpaceOnUse" color-interpolation-filters="sRGB">
<feFlood flood-opacity="0" result="BackgroundImageFix"/>
<feBlend mode="normal" in="SourceGraphic" in2="BackgroundImageFix" result="shape"/>
<feGaussianBlur stdDeviation="87" result="effect1_foregroundBlur_116_844"/>
</filter>
</defs>
</svg>
