<svg width="141" height="25" viewBox="0 0 141 25" fill="none" xmlns="http://www.w3.org/2000/svg">
<g clip-path="url(#clip0_80_7082)">
<path d="M12.8182 25C19.8977 25 25.6364 19.4037 25.6364 12.5V3.75C25.6364 2.75544 25.2312 1.80161 24.5101 1.09835C23.7889 0.395088 22.8108 0 21.7909 0L13.4591 0V5.48375C13.4591 6.735 13.5373 8.03125 14.2102 9.09625C14.692 9.85951 15.3365 10.5128 16.0999 11.0117C16.8634 11.5107 17.728 11.8437 18.6351 11.9881L18.8805 12.0269C18.9817 12.0606 19.0696 12.1244 19.1318 12.2092C19.194 12.294 19.2274 12.3957 19.2274 12.5C19.2274 12.6043 19.194 12.706 19.1318 12.7908C19.0696 12.8756 18.9817 12.9394 18.8805 12.9731L18.6351 13.0119C17.3098 13.223 16.086 13.8347 15.1364 14.7607C14.1869 15.6867 13.5596 16.8801 13.3431 18.1725L13.3033 18.4119C13.2688 18.5106 13.2034 18.5962 13.1164 18.6569C13.0294 18.7175 12.9251 18.7502 12.8182 18.7502C12.7112 18.7502 12.607 18.7175 12.52 18.6569C12.433 18.5962 12.3676 18.5106 12.333 18.4119L12.2933 18.1725C12.1451 17.288 11.8037 16.4449 11.292 15.7003C10.7803 14.9558 10.1104 14.3273 9.32779 13.8575C8.23568 13.2013 6.90644 13.125 5.62334 13.125H0.0153809C0.350576 19.7381 5.95404 25 12.8182 25Z" fill="#909DA9"/>
<path d="M0 11.875H5.62334C6.90644 11.875 8.23568 11.7987 9.32779 11.1425C10.1815 10.6296 10.9001 9.92876 11.4261 9.09625C12.0991 8.03125 12.1773 6.735 12.1773 5.48375V0H3.84545C2.82558 0 1.84747 0.395088 1.12631 1.09835C0.405145 1.80161 0 2.75544 0 3.75L0 11.875ZM29.7734 1.25C29.7734 1.58152 29.6384 1.89946 29.398 2.13388C29.1576 2.3683 28.8316 2.5 28.4916 2.5C28.1517 2.5 27.8256 2.3683 27.5852 2.13388C27.3448 1.89946 27.2098 1.58152 27.2098 1.25C27.2098 0.918479 27.3448 0.600537 27.5852 0.366116C27.8256 0.131696 28.1517 0 28.4916 0C28.8316 0 29.1576 0.131696 29.398 0.366116C29.6384 0.600537 29.7734 0.918479 29.7734 1.25ZM135.688 7.565C139.271 7.565 141 10.0056 141 12.8325V18.1419H137.25V13.4625C137.25 12.1812 136.771 11.1237 135.396 11.1237C134.021 11.1237 133.563 12.1812 133.563 13.4625V18.1412H129.813V13.4625C129.813 12.1812 129.355 11.1237 127.979 11.1237C126.605 11.1237 126.125 12.1812 126.125 13.4625V18.1412H122.376V12.8319C122.376 10.005 124.104 7.56437 127.688 7.56437C129.646 7.56437 131.063 8.31687 131.709 9.5575C132.396 8.31687 133.896 7.56375 135.688 7.56375V7.565ZM115.637 14.8875C116.845 14.8875 117.366 13.8094 117.366 12.5275V7.97125H121.116V12.975C121.116 15.965 119.324 18.4469 115.637 18.4469C111.95 18.4469 110.158 15.9656 110.158 12.975V7.97125H113.908V12.5275C113.908 13.8087 114.429 14.8875 115.637 14.8875ZM104.644 18.4669C102.29 18.4669 100.769 17.6737 99.8735 16.1281L102.582 14.6431C102.957 15.2937 103.519 15.6194 104.457 15.6194C105.228 15.6194 105.581 15.355 105.581 15.0294C105.581 13.7887 100.082 15.05 100.082 11.1044C100.082 9.19187 101.748 7.64625 104.582 7.64625C107.061 7.64625 108.415 8.82562 109.019 9.965L106.311 11.47C106.082 10.86 105.373 10.4937 104.665 10.4937C104.123 10.4937 103.832 10.7175 103.832 11.0225C103.832 12.2837 109.331 11.1244 109.331 14.9481C109.331 17.0837 107.186 18.4669 104.644 18.4669ZM91.543 22.82H87.793V13.0362C87.793 9.92375 90.1887 7.66625 93.5221 7.66625C96.7721 7.66625 99.2512 10.0869 99.2512 13.0362C99.2512 16.2906 97.0426 18.4469 93.7304 18.4469C92.9594 18.4469 92.189 18.2231 91.543 17.8769V22.82ZM93.5221 15.0094C94.7097 15.0094 95.5012 14.1144 95.5012 13.0562C95.5012 11.9787 94.7097 11.1037 93.5221 11.1037C92.3345 11.1037 91.543 11.9787 91.543 13.0569C91.543 14.1144 92.3345 15.0094 93.5221 15.0094ZM84.0366 6.89375C82.8074 6.89375 81.787 5.89687 81.787 4.69687C81.787 3.49687 82.8074 2.5 84.0366 2.5C85.2659 2.5 86.2869 3.49687 86.2869 4.69687C86.2869 5.89687 85.2659 6.89375 84.0366 6.89375ZM82.162 7.97125H85.9119V18.1419H82.162V7.97125ZM74.9671 18.4469C71.7171 18.4469 69.238 16.0062 69.238 13.0362C69.238 10.0869 71.7171 7.64625 74.9671 7.64625C78.2172 7.64625 80.6962 10.0869 80.6962 13.0362C80.6962 16.0062 78.2172 18.4469 74.9671 18.4469ZM74.9671 15.0094C76.1547 15.0094 76.9463 14.1144 76.9463 13.0562C76.9463 11.9787 76.1547 11.0837 74.9671 11.0837C73.7795 11.0837 72.988 11.9787 72.988 13.0562C72.988 14.1144 73.7795 15.0094 74.9671 15.0094ZM62.1573 23.125C59.5744 23.125 57.6991 22.0062 56.741 20.0125L59.8449 18.3856C60.1782 19.0775 60.803 19.7894 62.0945 19.7894C63.4494 19.7894 64.3447 18.955 64.4492 17.4906C63.9493 17.9181 63.1571 18.2431 61.9701 18.2431C59.0739 18.2431 56.7403 16.0669 56.7403 13.0156C56.7403 10.0669 59.22 7.66625 62.4701 7.66625C65.8034 7.66625 68.1991 9.92437 68.1991 13.0362V17.0637C68.1991 20.725 65.5945 23.125 62.1573 23.125ZM62.4072 14.8062C63.532 14.8062 64.3864 14.0531 64.3864 12.9344C64.3864 11.8362 63.5327 11.1037 62.4072 11.1037C61.303 11.1037 60.4281 11.8362 60.4281 12.935C60.4281 14.0537 61.303 14.8056 62.4072 14.8056V14.8062ZM50.3799 18.4469C47.1299 18.4469 44.6502 16.0062 44.6502 13.0362C44.6502 10.0869 47.1299 7.64625 50.3799 7.64625C53.6293 7.64625 56.109 10.0869 56.109 13.0362C56.109 16.0062 53.63 18.4469 50.3799 18.4469ZM50.3799 15.0094C51.5675 15.0094 52.3591 14.1144 52.3591 13.0562C52.3591 11.9787 51.5675 11.0837 50.3799 11.0837C49.1923 11.0837 48.4008 11.9787 48.4008 13.0562C48.4008 14.1144 49.1923 15.0094 50.3799 15.0094ZM37.822 4.4125V14.6837H44.0305V18.1419H37.3009C34.9263 18.1419 33.9682 16.9212 33.9682 14.9887V4.4125H37.822Z" fill="#909DA9"/>
</g>
<defs>
<clipPath id="clip0_80_7082">
<rect width="141" height="25" fill="white"/>
</clipPath>
</defs>
</svg>
