<svg width="766" height="222" viewBox="0 0 766 222" fill="none" xmlns="http://www.w3.org/2000/svg">
<g clip-path="url(#clip0_214_6669)">
<path d="M157.289 30.441L64.3669 105.511C63.1422 106.5 61.6157 107.04 60.0375 107.04H6.87349C0.409629 107.04 -2.46655 98.9735 2.55275 94.9296L114.685 4.64811C117.626 2.27916 140.372 -1.02366 142.761 1.89362L158.285 20.8581C160.674 23.7796 160.229 28.072 157.289 30.4453V30.441Z" fill="#F1F2F4"/>
<path d="M135.06 107.04H245.691C248.744 107.04 251.586 105.476 253.207 102.906L261.715 89.4162C265.419 83.5473 261.172 75.9221 254.199 75.9221H204.372C201.194 75.9221 198.258 74.2343 196.68 71.4969L157.944 4.42519C156.361 1.68782 153.429 0 150.251 0H95.8237C93.0898 0 90.5112 1.25088 88.8294 3.39278L81.7921 12.3503C79.5756 15.169 79.2954 19.0416 81.0849 22.1473L127.362 102.602C128.941 105.348 131.882 107.044 135.064 107.044L135.06 107.04Z" fill="#F1F2F4"/>
<path d="M189.211 77.1683H134.533C132.718 77.1683 131.049 76.1701 130.2 74.5723L99.3122 16.4066C97.6261 13.2323 99.8641 9.39826 103.473 9.27402L155.322 7.57335C157.155 7.50909 158.871 8.46867 159.768 10.0622L193.489 69.9329C197.775 77.1726 196.313 77.1725 186.71 77.1725H189.215L189.211 77.1683Z" fill="#F1F2F4"/>
<path d="M105.798 191.101L198.719 116.031C199.944 115.042 201.47 114.502 203.049 114.502H256.213C262.677 114.502 265.553 122.568 260.533 126.612L148.401 216.894C145.46 219.263 122.714 222.566 120.325 219.648L104.802 200.684C102.413 197.762 102.857 193.47 105.798 191.097V191.101Z" fill="#F1F2F4"/>
<path d="M128.027 114.507H17.395C14.3421 114.507 11.5004 116.07 9.87903 118.641L1.37124 132.13C-2.33286 137.999 1.91457 145.624 8.88725 145.624H58.7137C61.8917 145.624 64.8283 147.312 66.4065 150.049L105.142 217.117C106.725 219.854 109.657 221.542 112.835 221.542H167.262C169.996 221.542 172.575 220.291 174.257 218.149L181.294 209.192C183.51 206.373 183.791 202.501 182.001 199.395L135.724 118.94C134.145 116.194 131.205 114.498 128.022 114.498L128.027 114.507Z" fill="#F1F2F4"/>
<path d="M73.8751 144.378H128.553C130.368 144.378 132.037 145.376 132.886 146.974L163.778 205.14C165.464 208.314 163.226 212.148 159.617 212.272L107.768 213.973C105.936 214.037 104.219 213.078 103.323 211.488L69.6018 151.618C65.3156 144.378 66.7774 144.378 76.3804 144.378H73.8751Z" fill="#F1F2F4"/>
</g>
<path d="M730.969 160.805C723.823 160.805 717.636 159.236 712.407 156.099C707.179 152.962 703.127 148.561 700.251 142.897C697.419 137.233 696.003 130.653 696.003 123.159C696.003 115.621 697.419 109.02 700.251 103.356C703.127 97.6481 707.179 93.2256 712.407 90.0885C717.636 86.9514 723.823 85.3828 730.969 85.3828C738.114 85.3828 744.302 86.9514 749.53 90.0885C754.759 93.2256 758.811 97.6481 761.686 103.356C764.562 109.02 766 115.621 766 123.159C766 130.653 764.562 137.233 761.686 142.897C758.811 148.561 754.759 152.962 749.53 156.099C744.302 159.236 738.114 160.805 730.969 160.805ZM730.969 146.949C734.934 146.949 738.202 145.903 740.772 143.812C743.343 141.677 745.26 138.801 746.524 135.185C747.831 131.568 748.484 127.56 748.484 123.159C748.484 118.671 747.831 114.619 746.524 111.003C745.26 107.386 743.343 104.532 740.772 102.441C738.202 100.306 734.934 99.2385 730.969 99.2385C727.091 99.2385 723.845 100.306 721.231 102.441C718.616 104.532 716.656 107.386 715.348 111.003C714.085 114.619 713.453 118.671 713.453 123.159C713.453 127.56 714.085 131.568 715.348 135.185C716.656 138.801 718.616 141.677 721.231 143.812C723.845 145.903 727.091 146.949 730.969 146.949Z" fill="#F1F2F4"/>
<path d="M649.139 160.674C640.207 160.674 632.342 158.648 625.545 154.596C618.792 150.543 613.52 144.792 609.729 137.341C605.938 129.891 604.043 121.046 604.043 110.806C604.043 100.349 605.982 91.3737 609.86 83.8794C613.781 76.3852 619.097 70.6556 625.807 66.6906C632.517 62.682 640.12 60.6777 648.616 60.6777C654.019 60.6777 659.03 61.462 663.648 63.0306C668.31 64.5991 672.45 66.8431 676.066 69.7623C679.683 72.638 682.645 76.0584 684.955 80.0234C687.307 83.9884 688.876 88.3455 689.66 93.0947H671.687C670.903 90.524 669.814 88.2148 668.419 86.1669C667.069 84.1191 665.413 82.3762 663.452 80.9384C661.535 79.4569 659.357 78.3459 656.917 77.6052C654.477 76.8645 651.775 76.4941 648.812 76.4941C643.627 76.4941 638.987 77.823 634.891 80.4809C630.796 83.0951 627.571 86.9512 625.218 92.049C622.909 97.1033 621.755 103.29 621.755 110.61C621.755 117.974 622.909 124.205 625.218 129.302C627.528 134.4 630.752 138.278 634.891 140.936C639.031 143.55 643.823 144.857 649.27 144.857C654.193 144.857 658.463 143.921 662.08 142.047C665.696 140.13 668.485 137.428 670.445 133.943C672.406 130.457 673.386 126.34 673.386 121.59L677.439 122.244H650.969V108.454H690.51V120.087C690.51 128.453 688.745 135.664 685.216 141.72C681.687 147.777 676.785 152.461 670.511 155.772C664.28 159.04 657.156 160.674 649.139 160.674Z" fill="#F1F2F4"/>
<path d="M552.997 136.492L552.932 115.643H555.742L581.95 86.2981H602.08L569.794 122.31H566.199L552.997 136.492ZM537.311 159.367V61.9854H554.5V159.367H537.311ZM583.126 159.367L559.337 126.166L570.97 114.009L603.714 159.367H583.126Z" fill="#F1F2F4"/>
<path d="M529.139 105.709L513.519 107.343C512.865 104.946 511.449 102.833 509.27 101.003C507.092 99.1295 504.02 98.1928 500.055 98.1928C496.482 98.1928 493.476 98.977 491.036 100.546C488.639 102.114 487.441 104.118 487.441 106.558C487.441 108.693 488.225 110.458 489.794 111.852C491.406 113.203 494.064 114.292 497.768 115.12L510.251 117.734C517.091 119.172 522.211 121.525 525.61 124.793C529.008 128.061 530.707 132.287 530.707 137.472C530.707 142.047 529.378 146.099 526.721 149.629C524.063 153.158 520.381 155.903 515.675 157.864C511.013 159.824 505.632 160.805 499.532 160.805C490.6 160.805 483.411 158.931 477.964 155.184C472.562 151.393 469.315 146.143 468.226 139.433L485.023 137.864C485.764 141.132 487.376 143.616 489.859 145.315C492.386 146.971 495.611 147.799 499.532 147.799C503.628 147.799 506.917 146.971 509.401 145.315C511.885 143.616 513.126 141.546 513.126 139.106C513.126 135.01 509.859 132.222 503.323 130.74L490.84 128.126C483.825 126.601 478.64 124.139 475.285 120.741C471.93 117.299 470.252 112.92 470.252 107.604C470.252 103.073 471.494 99.1513 473.978 95.8399C476.461 92.5285 479.925 89.9578 484.369 88.1278C488.814 86.2978 493.955 85.3828 499.794 85.3828C508.377 85.3828 515.109 87.2346 519.989 90.9381C524.912 94.5981 527.962 99.5217 529.139 105.709Z" fill="#F1F2F4"/>
<path d="M422.932 160.87C418.27 160.87 414.087 160.042 410.383 158.386C406.68 156.687 403.76 154.204 401.625 150.936C399.49 147.668 398.423 143.638 398.423 138.845C398.423 134.749 399.185 131.35 400.71 128.649C402.235 125.948 404.305 123.791 406.919 122.179C409.577 120.567 412.562 119.347 415.873 118.519C419.185 117.647 422.605 117.037 426.134 116.689C430.448 116.209 433.933 115.796 436.591 115.447C439.249 115.098 441.166 114.532 442.343 113.748C443.563 112.963 444.173 111.743 444.173 110.088V109.761C444.173 106.232 443.127 103.487 441.036 101.526C438.944 99.5653 435.894 98.5849 431.886 98.5849C427.659 98.5849 424.304 99.4999 421.821 101.33C419.381 103.16 417.725 105.317 416.853 107.8L400.841 105.513C402.105 101.068 404.196 97.3649 407.115 94.4021C410.035 91.3956 413.586 89.1517 417.768 87.6703C421.995 86.1453 426.657 85.3828 431.755 85.3828C435.241 85.3828 438.726 85.7967 442.212 86.6246C445.698 87.4089 448.9 88.7596 451.819 90.6767C454.739 92.5939 457.07 95.1646 458.813 98.3888C460.555 101.613 461.427 105.643 461.427 110.48V159.367H444.892V149.302H444.369C443.323 151.306 441.842 153.201 439.924 154.988C438.051 156.731 435.698 158.147 432.866 159.236C430.077 160.325 426.766 160.87 422.932 160.87ZM427.311 148.191C430.796 148.191 433.803 147.515 436.33 146.165C438.857 144.77 440.818 142.94 442.212 140.675C443.606 138.365 444.303 135.86 444.303 133.159V124.597C443.737 125.033 442.822 125.447 441.558 125.839C440.295 126.187 438.857 126.514 437.245 126.819C435.633 127.124 434.042 127.385 432.474 127.603C430.949 127.821 429.62 127.995 428.487 128.126C425.916 128.475 423.607 129.063 421.559 129.891C419.555 130.675 417.965 131.764 416.788 133.159C415.612 134.553 415.023 136.361 415.023 138.583C415.023 141.764 416.178 144.16 418.487 145.773C420.797 147.385 423.738 148.191 427.311 148.191Z" fill="#F1F2F4"/>
<path d="M327.704 76.756V61.9854H405.348V76.756H375.284V159.367H357.833V76.756H327.704Z" fill="#F1F2F4"/>
<defs>
<clipPath id="clip0_214_6669">
<rect width="263.086" height="221.546" fill="white"/>
</clipPath>
</defs>
</svg>
