<svg width="14" height="14" viewBox="0 0 14 14" fill="none" xmlns="http://www.w3.org/2000/svg">
<g clip-path="url(#clip0_205_6609)">
<path fill-rule="evenodd" clip-rule="evenodd" d="M0.0163116 0.000218169L4.06337 -0.00244141L5.81646 2.48958C6.78134 3.85926 7.57498 4.98426 7.58314 4.98692C7.59129 4.99224 8.56976 3.88852 9.75751 2.53479C10.9453 1.18373 11.9373 0.0587288 11.9591 0.0374522C11.9917 0.00819689 12.1113 0.00287774 13.174 0.013516L10.6517 2.88586C9.26284 4.46564 8.12673 5.76352 8.12673 5.7715C8.12673 5.77948 9.35253 7.52682 10.8474 9.65448C12.3423 11.7821 13.579 13.5454 13.5926 13.572C13.617 13.6146 13.511 13.6172 9.58084 13.6199L7.73263 10.9869C6.7161 9.53745 5.87082 8.3566 5.85723 8.36192C5.84092 8.36458 4.78906 9.55075 1.2095 13.6199H0.611547C0.0462093 13.6199 0.0163116 13.6172 0.0543632 13.572C0.076107 13.5481 1.2693 12.1917 2.70166 10.5614C4.13675 8.92841 5.3082 7.58001 5.3082 7.56671C5.3082 7.55075 4.13947 5.87522 2.71254 3.8433C1.2856 1.80873 0.0951327 0.11458 0.0679531 0.0720267L0.0163116 0.000218169ZM5.89528 6.83799L10.1272 12.7529C11.6166 12.7662 11.9563 12.7582 11.9509 12.7422C11.9482 12.7289 10.0429 10.0534 7.71904 6.79809L3.49259 0.880537C2.09284 0.880537 1.68243 0.888516 1.67699 0.899154C1.67155 0.909793 3.5687 3.58267 5.89528 6.83533V6.83799Z" fill="#0D062D"/>
</g>
<defs>
<clipPath id="clip0_205_6609">
<rect width="13.617" height="13.617" fill="white"/>
</clipPath>
</defs>
</svg>
