<svg width="15" height="14" viewBox="0 0 15 14" fill="none" xmlns="http://www.w3.org/2000/svg">
<path d="M11.7289 8.70889C11.5381 8.89383 11.4504 9.16128 11.4939 9.42358L12.1489 13.0486C12.2041 13.3558 12.0745 13.6668 11.8173 13.8443C11.5653 14.0285 11.2301 14.0506 10.9553 13.9033L7.69203 12.2013C7.57856 12.1409 7.45257 12.1085 7.32363 12.1048H7.12396C7.0547 12.1151 6.98692 12.1372 6.92503 12.1711L3.66103 13.8812C3.49968 13.9622 3.31695 13.991 3.13791 13.9622C2.70173 13.8797 2.4107 13.4642 2.48216 13.0258L3.13791 9.40074C3.18138 9.13623 3.0937 8.8673 2.90287 8.67942L0.242313 6.10065C0.0198019 5.88477 -0.0575614 5.56058 0.0441161 5.26807C0.142846 4.9763 0.39483 4.76337 0.699125 4.71548L4.36099 4.18425C4.63949 4.15551 4.88411 3.98605 5.00936 3.73554L6.62294 0.42734C6.66125 0.353661 6.71062 0.285876 6.7703 0.228406L6.83661 0.17683C6.87124 0.138517 6.91103 0.106835 6.95523 0.0810472L7.03554 0.0515755L7.1608 0H7.47099C7.74802 0.0287349 7.9919 0.194513 8.11937 0.442076L9.75431 3.73554C9.8722 3.97647 10.1013 4.14372 10.3658 4.18425L14.0277 4.71548C14.3372 4.75968 14.5958 4.97335 14.6982 5.26807C14.7947 5.56352 14.7115 5.88771 14.4845 6.10065L11.7289 8.70889Z" fill="#6049E7"/>
</svg>
