<svg width="14" height="14" viewBox="0 0 14 14" fill="none" xmlns="http://www.w3.org/2000/svg">
<path d="M1.14271 0.0833388C1.01318 0.126515 0.837157 0.212867 0.747484 0.272649C0.657811 0.329109 0.511677 0.461958 0.418683 0.561595C0.32901 0.661232 0.212767 0.833936 0.159627 0.943536C0.106488 1.05314 0.0467057 1.25905 0.0234571 1.40851C-0.00975513 1.63435 -0.00975513 1.71074 0.036742 1.9233C0.0633118 2.05947 0.129736 2.26206 0.182876 2.37166C0.236016 2.48126 0.35558 2.65397 0.448574 2.7536C0.54489 2.85324 0.70763 2.98941 0.813909 3.05251C0.920188 3.11562 1.10618 3.19533 1.22574 3.22522C1.34531 3.25511 1.52133 3.28168 1.61765 3.28168C1.71064 3.285 1.87006 3.26839 1.96305 3.24847C2.05937 3.22854 2.22875 3.16876 2.33835 3.11562C2.44795 3.06248 2.60405 2.96284 2.68708 2.89309C2.77011 2.82335 2.89964 2.67057 2.97935 2.55101C3.05906 2.43477 3.15205 2.24213 3.18859 2.12257C3.22844 1.9864 3.25169 1.81038 3.25169 1.64099C3.25169 1.47161 3.22844 1.29559 3.18859 1.15942C3.15205 1.03985 3.0657 0.853863 2.99263 0.744263C2.92289 0.634662 2.80664 0.495171 2.73358 0.432067C2.66383 0.368964 2.55091 0.285934 2.48781 0.246079C2.4247 0.202903 2.25864 0.133157 2.12247 0.0833388C1.93648 0.0202355 1.81028 -0.00301303 1.62429 0.000308195C1.44826 0.000308195 1.30545 0.0235568 1.14271 0.0833388ZM9.52881 4.381C9.37271 4.41422 9.17011 4.46736 9.08044 4.49725C8.98745 4.53046 8.83799 4.59356 8.74832 4.64006C8.65532 4.68324 8.49258 4.78287 8.38298 4.85926C8.27338 4.93233 8.09736 5.07846 7.99108 5.18474C7.88812 5.29102 7.74531 5.46372 7.67556 5.56668L7.55268 5.75267L7.51946 4.53046L4.81266 4.51385V13.614H7.63571C7.63571 9.72818 7.64899 8.62885 7.66892 8.4495C7.68885 8.28344 7.7287 8.06092 7.75527 7.95132C7.78516 7.84172 7.85491 7.65573 7.91137 7.53949C7.97779 7.41328 8.08739 7.26383 8.19035 7.16751C8.28667 7.07784 8.44609 6.96824 8.53908 6.92506C8.6354 6.87857 8.81806 6.82543 8.94759 6.80218C9.0738 6.78225 9.29964 6.77229 9.44578 6.78225C9.60187 6.79221 9.7945 6.82875 9.91075 6.87524C10.0336 6.92174 10.1731 7.00809 10.2728 7.10109C10.3591 7.18412 10.4754 7.33689 10.5252 7.43653C10.575 7.53617 10.6348 7.68562 10.658 7.76865C10.6813 7.85168 10.7145 7.99118 10.7311 8.08417C10.751 8.18381 10.7743 9.31634 10.7875 10.9238L10.8075 13.5974H13.5973C13.6139 9.37613 13.604 8.24027 13.5807 7.86829C13.5608 7.54945 13.5143 7.12101 13.4777 6.92174C13.4412 6.71915 13.3681 6.42688 13.3117 6.26414C13.2585 6.10472 13.1755 5.89548 13.129 5.79917C13.0792 5.70617 12.9796 5.53679 12.8998 5.42719C12.8235 5.31759 12.6707 5.14821 12.5644 5.04857C12.4581 4.95225 12.2721 4.81276 12.1526 4.74302C12.033 4.67327 11.8005 4.57031 11.6378 4.51717C11.4717 4.46071 11.1894 4.39429 11.0068 4.3644C10.8241 4.33783 10.4787 4.31458 10.2429 4.3179C9.95724 4.3179 9.71479 4.34115 9.52881 4.381ZM0.229373 9.06393V13.614H3.05242V4.51385H0.229373V9.06393Z" fill="#0D062D"/>
</svg>
