<svg width="34" height="34" viewBox="0 0 34 34" fill="none" xmlns="http://www.w3.org/2000/svg">
<path fill-rule="evenodd" clip-rule="evenodd" d="M17 34C26.3889 34 34 26.3888 34 17C34 7.61116 26.3889 0 17 0C7.61116 0 0 7.61116 0 17C0 26.3888 7.61116 34 17 34ZM19.6239 13.1347C21.073 11.6855 21.073 9.33603 19.6239 7.88687C18.1748 6.43772 15.8253 6.43772 14.3761 7.88687C12.927 9.33603 12.927 11.6855 14.3761 13.1347L17 15.7586L19.6239 13.1347ZM20.8654 19.6239C22.3145 21.0731 24.664 21.0731 26.1132 19.6239C27.5623 18.1748 27.5623 15.8253 26.1132 14.3761C24.664 12.927 22.3145 12.927 20.8654 14.3761L18.2415 17.0001L20.8654 19.6239ZM19.6239 26.1132C21.073 24.664 21.073 22.3145 19.6239 20.8654L17 18.2415L14.3761 20.8654C12.927 22.3145 12.927 24.664 14.3761 26.1132C15.8253 27.5623 18.1748 27.5623 19.6239 26.1132ZM7.88684 19.6239C6.43773 18.1748 6.43773 15.8253 7.88684 14.3761C9.33604 12.927 11.6855 12.927 13.1347 14.3761L15.7586 17.0001L13.1347 19.6239C11.6855 21.0731 9.33604 21.0731 7.88684 19.6239Z" fill="#7F57F1"/>
</svg>
