<svg width="19" height="19" viewBox="0 0 19 19" fill="none" xmlns="http://www.w3.org/2000/svg">
<path d="M15.246 1.93312C17.2564 3.52005 18.574 5.60857 18.9313 8.1761C19.2394 10.9783 18.5101 13.4423 16.7652 15.6591C15.2017 17.4916 12.9883 18.6891 10.5936 18.9735C7.70989 19.1553 5.18937 18.4098 2.98125 16.4987C2.27117 15.823 1.73763 15.0983 1.25837 14.2455C1.20242 14.1471 1.14647 14.0486 1.08883 13.9472C-0.111963 11.6985 -0.290296 9.04206 0.409717 6.60805C1.29813 3.9942 3.07783 2.08244 5.51016 0.841579C8.76897 -0.613948 12.3927 -0.137983 15.246 1.93312ZM6.88496 7.79193C6.43268 8.50853 6.26193 9.26822 6.40333 10.1048C6.64789 11.0422 7.14314 11.625 7.92636 12.1846C8.70261 12.6302 9.44441 12.6772 10.3047 12.473C11.2675 12.1438 11.7728 11.5558 12.2833 10.6996C12.5337 9.81562 12.5484 8.98382 12.162 8.13857C11.7141 7.35475 11.1149 6.82145 10.2493 6.54459C8.89354 6.24551 7.74632 6.70867 6.88496 7.79193Z" fill="#6049E7"/>
</svg>
