<svg width="20" height="20" viewBox="0 0 20 20" fill="none" xmlns="http://www.w3.org/2000/svg">
<g clip-path="url(#clip0_86_7593)">
<path d="M9.9878 -0.0120483C10.0256 -0.0119771 10.0634 -0.0119058 10.1023 -0.0118325C10.6622 -0.010058 11.2069 0.00982046 11.7578 0.117346C11.8104 0.126778 11.8104 0.126778 11.864 0.136401C13.7212 0.472462 15.4011 1.35062 16.7886 2.6178C16.8575 2.67969 16.927 2.7382 16.9995 2.79557C17.1138 2.89462 17.2084 2.99945 17.3061 3.11448C17.3901 3.21175 17.4779 3.30485 17.5659 3.3986C18.7442 4.69629 19.5037 6.35478 19.856 8.06168C19.8617 8.08944 19.8675 8.1172 19.8734 8.14581C19.99 8.75684 20.0146 9.36761 20.0122 9.98795C20.0121 10.0446 20.0121 10.0446 20.012 10.1025C20.0102 10.6623 19.9903 11.2071 19.8828 11.758C19.8765 11.793 19.8702 11.8281 19.8638 11.8642C19.5277 13.7214 18.6495 15.4012 17.3824 16.7888C17.3205 16.8576 17.262 16.9271 17.2046 16.9997C17.1055 17.114 17.0007 17.2085 16.8857 17.3062C16.7884 17.3903 16.6953 17.4781 16.6016 17.5661C15.3039 18.7443 13.6454 19.5039 11.9385 19.8561C11.9107 19.8619 11.883 19.8676 11.8544 19.8736C11.2433 19.9902 10.6326 20.0148 10.0122 20.0124C9.97442 20.0123 9.93664 20.0122 9.8977 20.0122C9.33782 20.0104 8.79306 19.9905 8.24219 19.883C8.20715 19.8767 8.17211 19.8704 8.13601 19.8639C6.2788 19.5279 4.59893 18.6497 3.21137 17.3825C3.14255 17.3206 3.07302 17.2621 3.00049 17.2047C2.8862 17.1057 2.79165 17.0009 2.69395 16.8858C2.60987 16.7886 2.52207 16.6955 2.43409 16.6017C1.25583 15.304 0.49627 13.6455 0.144049 11.9386C0.13829 11.9109 0.132531 11.8831 0.126597 11.8545C0.00998126 11.2435 -0.0146348 10.6327 -0.0122008 10.0124C-0.0121296 9.97458 -0.0120584 9.93679 -0.0119851 9.89785C-0.0102105 9.33797 0.00966787 8.79322 0.117194 8.24235C0.126626 8.18979 0.126626 8.18979 0.136248 8.13616C0.472309 6.27895 1.35047 4.59908 2.61765 3.21152C2.67954 3.14271 2.73805 3.07317 2.79542 3.00065C2.89447 2.88636 2.9993 2.79181 3.11433 2.6941C3.2116 2.61003 3.30469 2.52222 3.39844 2.43424C4.69613 1.25598 6.35463 0.496422 8.06153 0.144202C8.08929 0.138443 8.11705 0.132683 8.14565 0.12675C8.75669 0.0101339 9.36746 -0.0144822 9.9878 -0.0120483ZM5.07813 3.16422C5.01771 3.20788 5.01771 3.20788 4.95606 3.25242C3.11496 4.6197 1.97537 6.6516 1.63621 8.90595C1.59091 9.26145 1.58604 9.61529 1.58692 9.9733C1.58695 10.0075 1.58699 10.0417 1.58702 10.077C1.59276 11.8222 2.12513 13.5128 3.16407 14.922C3.20773 14.9825 3.20773 14.9825 3.25226 15.0441C4.61955 16.8852 6.65145 18.0248 8.9058 18.364C9.2613 18.4093 9.61514 18.4141 9.97315 18.4132C10.0074 18.4132 10.0416 18.4132 10.0768 18.4131C11.822 18.4074 13.5127 17.875 14.9219 16.8361C14.9622 16.807 15.0024 16.7779 15.044 16.7479C16.885 15.3806 18.0246 13.3487 18.3638 11.0944C18.4091 10.7389 18.414 10.385 18.4131 10.027C18.4131 9.99279 18.413 9.95858 18.413 9.92332C18.4073 8.17816 17.8749 6.48751 16.8359 5.07828C16.8068 5.038 16.7777 4.99772 16.7477 4.95621C15.3805 3.11511 13.3486 1.97552 11.0942 1.63636C10.7387 1.59107 10.3849 1.58619 10.0269 1.58707C9.99264 1.58711 9.95842 1.58714 9.92317 1.58718C8.17801 1.59291 6.48735 2.12528 5.07813 3.16422Z" fill="#0D062D"/>
<path d="M14.4348 6.77512C14.5902 6.93916 14.6783 7.15815 14.6875 7.38258C14.6501 7.90053 14.1842 8.24875 13.8389 8.59287C13.7888 8.64307 13.7387 8.69328 13.6886 8.74351C13.5535 8.87903 13.4181 9.0143 13.2826 9.14951C13.1406 9.29138 12.9987 9.43345 12.8568 9.57548C12.6186 9.81377 12.3803 10.0519 12.1419 10.2899C11.8665 10.5649 11.5914 10.8402 11.3164 11.1156C11.0799 11.3525 10.8432 11.5892 10.6064 11.8258C10.4651 11.9669 10.3239 12.1081 10.1829 12.2494C10.0503 12.3822 9.9176 12.5148 9.78473 12.6472C9.73607 12.6957 9.68748 12.7444 9.63895 12.793C9.5726 12.8596 9.50601 12.9259 9.43936 12.9922C9.42032 13.0114 9.40128 13.0306 9.38166 13.0504C9.14481 13.2846 8.9256 13.4126 8.59375 13.4373C8.25097 13.4082 8.02064 13.1884 7.78967 12.9564C7.76512 12.9321 7.74057 12.9077 7.71528 12.8826C7.63467 12.8026 7.55435 12.7222 7.47406 12.6418C7.41785 12.5858 7.36163 12.5297 7.30541 12.4737C7.1878 12.3564 7.07034 12.2389 6.95297 12.1213C6.80287 11.971 6.65233 11.8211 6.50166 11.6713C6.3855 11.5558 6.26962 11.4399 6.15382 11.324C6.09843 11.2686 6.04296 11.2134 5.98739 11.1582C5.90961 11.0809 5.83222 11.0032 5.75491 10.9255C5.7321 10.903 5.70929 10.8804 5.68578 10.8572C5.4744 10.6431 5.32324 10.4284 5.3125 10.117C5.33247 9.82639 5.45019 9.64592 5.66406 9.45289C5.83936 9.3254 6.00174 9.32097 6.21185 9.31632C6.59815 9.38071 6.83716 9.668 7.09839 9.93445C7.1417 9.97806 7.18504 10.0216 7.22842 10.0652C7.34179 10.1791 7.45468 10.2935 7.56748 10.4081C7.68294 10.5251 7.79886 10.6418 7.91473 10.7584C8.14151 10.9869 8.36779 11.2158 8.59375 11.4451C8.84543 11.2379 9.07338 11.0089 9.30267 10.7778C9.34613 10.7341 9.3896 10.6905 9.43308 10.6468C9.52625 10.5533 9.61937 10.4597 9.71244 10.366C9.85975 10.2178 10.0072 10.0698 10.1548 9.92179C10.5741 9.50113 10.9933 9.0803 11.4121 8.65907C11.6438 8.42609 11.8756 8.19332 12.1077 7.96078C12.2543 7.81386 12.4006 7.66668 12.5468 7.51931C12.6379 7.42761 12.7292 7.33616 12.8206 7.24478C12.8628 7.20249 12.9049 7.16011 12.9468 7.11761C13.367 6.69256 13.872 6.32517 14.4348 6.77512Z" fill="#0D062D"/>
</g>
<defs>
<clipPath id="clip0_86_7593">
<rect width="20" height="20" fill="white"/>
</clipPath>
</defs>
</svg>
